<?xml version="1.0" encoding="UTF-8" standalone="no"?>
<svg
   xmlns:dc="http://purl.org/dc/elements/1.1/"
   xmlns:cc="http://creativecommons.org/ns#"
   xmlns:rdf="http://www.w3.org/1999/02/22-rdf-syntax-ns#"
   xmlns:svg="http://www.w3.org/2000/svg"
   xmlns="http://www.w3.org/2000/svg"
   version="1.1"
   x="0px"
   y="0px"
   viewBox="0 0 64 64"
   xml:space="preserve"
   width="64"
   height="64"
   id="svg25"><metadata
   id="metadata41"><rdf:RDF><cc:Work
       rdf:about=""><dc:format>image/svg+xml</dc:format><dc:type
         rdf:resource="http://purl.org/dc/dcmitype/StillImage" /><dc:title></dc:title></cc:Work></rdf:RDF></metadata><defs
   id="defs39" />
<style
   type="text/css"
   id="style10">
	.st0{fill:#86DA2F;}
	.st1{fill:#24C2FF;}
	.st2{fill:#FFCB12;}
	.st3{fill:#0069DA;}
	.st4{fill:#FF4649;}
</style>
<g
   id="g34"
   transform="matrix(2.8656643,0,0,2.8656643,-2.2209739,-2.3027283)">
	<path
   class="st0"
   d="m 21,13.4 c 0.9,-0.1 1.7,0.5 1.7,1.4 0.1,0.9 -0.6,1.7 -1.5,1.8 -0.9,0.1 -1.7,-0.6 -1.7,-1.5 -0.1,-0.9 0.6,-1.6 1.5,-1.7 z"
   id="path14" />
	<path
   class="st1"
   d="m 9.9,20.8 c 0,-0.9 0.7,-1.6 1.5,-1.6 0.8,0 1.7,0.8 1.7,1.7 0,0.8 -0.7,1.6 -1.5,1.6 -1,0 -1.7,-0.6 -1.7,-1.7 z"
   id="path16" />
	<path
   class="st2"
   d="m 12.4,10.6 c -0.1,0.1 -0.2,0 -0.2,-0.1 C 10.8,8 11.2,5 13.5,3.1 14.1,2.6 15.2,2.5 15.7,3 15.9,3.2 16,3.4 16,3.7 c 0.1,0.5 0.2,1.1 0.5,1.5 0.4,0.5 0.9,0.6 1.4,0.6 0.5,0 1,-0.1 1.3,0.5 0.2,0.3 0.1,1.5 -0.2,1.8 -0.1,0.1 -0.2,0 -0.4,0 C 17.8,7.8 16.9,7.8 16.1,7.9 15.8,7.9 15.7,7.9 15.7,7.5 15.7,7 15.6,6.5 15.3,6 14.8,5.1 13.8,5 13.2,5.9 c -0.5,0.7 -0.7,1.5 -0.8,2.4 -0.1,0.7 0,1.5 0,2.3 0,0 0,0 0,0 z"
   id="path18" />
	<path
   class="st0"
   d="m 13.3,11.1 c -0.1,-0.1 0,-0.2 0.1,-0.3 2,-1.8 5,-2.2 7.3,-0.4 0.6,0.5 1,1.5 0.7,2.1 -0.1,0.2 -0.3,0.4 -0.5,0.4 -0.5,0.2 -0.9,0.4 -1.3,0.9 -0.3,0.5 -0.4,1 -0.2,1.5 0.1,0.5 0.3,0.9 -0.2,1.4 -0.2,0.2 -1.4,0.5 -1.8,0.2 -0.1,-0.1 -0.1,-0.2 -0.1,-0.4 0.1,-0.9 -0.1,-1.7 -0.4,-2.5 -0.1,-0.3 -0.1,-0.4 0.2,-0.5 0.5,-0.1 0.9,-0.4 1.3,-0.7 0.8,-0.7 0.6,-1.7 -0.4,-2.1 -0.8,-0.4 -1.7,-0.3 -2.5,-0.2 -0.8,0.2 -1.5,0.4 -2.2,0.6 z"
   id="path20" />
	<path
   class="st1"
   d="m 12.8,12 c 0.1,-0.1 0.2,-0.1 0.3,0 2.3,1.4 3.5,4.2 2.5,6.9 -0.3,0.7 -1.2,1.4 -1.9,1.2 -0.3,-0.1 -0.4,-0.2 -0.6,-0.4 -0.3,-0.4 -0.7,-0.8 -1.2,-1 -0.6,-0.2 -1.1,-0.1 -1.5,0.2 C 10,19.2 9.5,19.5 9,19.2 8.7,19 8.2,17.9 8.3,17.6 c 0.1,-0.1 0.2,-0.1 0.4,-0.1 0.9,-0.1 1.6,-0.6 2.3,-1.1 0.2,-0.2 0.4,-0.2 0.6,0.1 0.3,0.4 0.6,0.8 1.1,1 0.9,0.5 1.8,0.1 1.9,-1 0.1,-0.9 -0.2,-1.7 -0.5,-2.4 -0.5,-0.8 -0.9,-1.4 -1.3,-2.1 z"
   id="path22" />
	<path
   class="st3"
   d="m 11.7,12.2 c -0.1,0.7 -0.5,1.4 -0.9,2 C 9.5,16.1 7.7,16.9 5.5,16.7 4.7,16.6 4,16 4,15.3 4,15 4,14.8 4.2,14.6 4.4,14.3 4.7,14 4.8,13.6 5,12.8 4.7,12.2 4.2,11.6 3.4,10.8 3.5,10.1 4.4,9.6 4.5,9.5 4.6,9.5 4.8,9.4 5,9.3 5.2,9.3 5.3,9.5 5.6,10.3 6.2,10.9 7,11.4 7,11.6 7,11.7 6.8,12 6.4,12.5 6.1,13 6.1,13.7 6,14.5 6.5,15 7.3,15 c 0.5,0 0.9,-0.2 1.4,-0.4 1.1,-0.6 1.9,-1.4 2.7,-2.2 0.1,-0.1 0.1,-0.2 0.3,-0.2 z"
   id="path24" />
	<path
   class="st4"
   d="M 5.9,4.9 C 6,4.9 6.1,4.9 6.3,5 7.6,5.2 8.4,4.8 8.8,3.6 9.1,2.8 9.7,2.5 10.5,3 c 0,0 0,0 0.1,0 0.8,0.5 0.8,0.5 0.3,1.2 C 10.5,4.8 10.3,5.4 10.2,6.1 10.1,6.4 10,6.4 9.6,6.3 9,6.1 8.4,6.1 7.9,6.3 7.2,6.5 6.9,7.1 7.1,7.8 7.4,8.6 8.2,9 8.8,9.5 c 0.7,0.5 1.4,0.7 2.2,1 0.1,0 0.3,0 0.2,0.2 0,0.1 -0.2,0.1 -0.3,0.1 C 9.3,10.9 7.8,10.6 6.6,9.6 5.4,8.7 4.6,7.5 4.7,5.9 4.9,5.3 5.2,5 5.9,4.9 Z"
   id="path26" />
	<path
   class="st3"
   d="M 3,14.7 C 2.2,14.8 1.3,14.1 1.2,13.2 1.1,12.4 1.8,11.5 2.6,11.4 3.5,11.3 4.4,11.9 4.4,12.8 4.6,13.7 4.1,14.7 3,14.7 Z"
   id="path28" />
	<path
   class="st2"
   d="m 17.8,2.2 c 0.9,-0.1 1.7,0.6 1.8,1.5 0.1,0.8 -0.6,1.7 -1.5,1.7 -0.9,0.1 -1.7,-0.6 -1.8,-1.5 0,-0.8 0.6,-1.6 1.5,-1.7 z"
   id="path30" />
	<path
   class="st4"
   d="M 8.6,2.9 C 8.7,3.8 8.1,4.6 7.1,4.7 6.3,4.8 5.5,4.1 5.4,3.4 5.3,2.4 5.9,1.6 6.8,1.5 7.7,1.4 8.5,2.1 8.6,2.9 Z"
   id="path32" />
</g>
</svg>
