<?xml version="1.0" encoding="UTF-8"?>
<svg width="64" height="64" version="1.0" xmlns="http://www.w3.org/2000/svg" xmlns:xlink="http://www.w3.org/1999/xlink">
 <path d="m31.994 1.5921c-2.7069 6.6365-4.3395 10.978-7.3532 17.417 1.8478 1.9587 4.1159 4.2396 7.7992 6.8158-3.96-1.6295-6.6612-3.2655-8.6798-4.9632-3.857 8.0482-9.8998 19.513-22.163 41.546 9.6382-5.5643 17.11-8.9947 24.072-10.304-0.29899-1.286-0.46898-2.677-0.45743-4.1283l0.01144-0.30877c0.15294-6.1749 3.3651-10.923 7.1703-10.601 3.8051 0.32241 6.7628 5.5926 6.6099 11.767-0.02877 1.1619-0.15982 2.2797-0.38882 3.3164 6.8873 1.3473 14.279 4.7689 23.787 10.258-1.8747-3.4515-3.5481-6.5628-5.1461-9.5261-2.5171-1.9509-5.1426-4.4901-10.498-7.2389 3.6811 0.95649 6.3166 2.06 8.371 3.2935-16.247-30.25-17.563-34.269-23.135-47.344z" fill="#1793d1" fill-rule="evenodd"/>
</svg>
