<svg xmlns="http://www.w3.org/2000/svg" width="64" height="64"><g color="#000" stroke-width="4.671"><path xml:space="default" style="marker:none" overflow="visible" fill="#932279" d="M29.868 32.514L16.472 45.707 3.076 32.514 16.472 19.32z"/><path xml:space="default" style="marker:none" overflow="visible" fill="#efa724" d="M32.66 29.81L19.462 16.534 32.66 3.257l13.196 13.277z"/><path xml:space="default" style="marker:none" overflow="visible" fill="#9ccd2a" d="M45.885 48.533L32.488 61.726 19.092 48.533 32.488 35.34z"/><path xml:space="default" style="marker:none" overflow="visible" fill="#262577" d="M48.675 45.831L35.479 32.555l13.196-13.277 13.196 13.277z"/><path xml:space="default" style="marker:none" overflow="visible" fill="#efa724" d="M35.283 35.126h17.888v18.021H35.283z"/><path xml:space="default" style="marker:none" overflow="visible" fill="#932279" d="M35.356 11.858h17.948v17.929H35.356z"/><path xml:space="default" style="marker:none" overflow="visible" fill="#262577" d="M11.258 35.128h18.686v18.686H11.258z"/><path xml:space="default" style="marker:none" overflow="visible" fill="#9ccd2a" d="M11.257 11.1h18.687v18.578H11.257z"/><path d="M32.658 2.31l-8.073 8.123H10.588v13.743l-8.466 8.337 8.468 8.34v13.629h13.59l8.307 8.18 8.307-8.18h13.73v-13.59l8.287-8.339-8.173-8.223V10.54h-13.8zm0 1.893l6.298 6.337h-4.274v16.287l-2.024 2.037-2.049-2.062V10.433h-4.143zm-20.736 7.564H23.26l-4.739 4.768 10.755 10.82v1.655H27.26L16.47 18.383l-4.548 4.479zm13.218 0h4.135V25.46l-8.872-8.927zm10.879.11h4.266l4.628 4.657-8.894 8.948zm6.147 0h11.137v11.11l-4.63-4.657L37.95 29.12h-1.931v-1.745l10.775-10.842zm6.508 8.346l4.629 4.657v4.24H39.83zm-32.202.034l8.888 8.753H11.922v-4.273zm-5.884 5.794v4.293h16.126l2.203 2.169-1.978 1.948H10.59v4.517l-6.564-6.465zm44.049.171l6.292 6.331L54.523 39v-4.54h-16.21l-1.894-1.906 2.086-2.099h16.132zm-24.028 2.476l2.048 2.06.472-.475 1.553-1.563v1.734h1.942l-2.086 2.099 1.894 1.906h-1.816V36.5l-2.13-2.097-1.875 1.846v-1.788H28.84l1.978-1.948-.476-.468-1.727-1.7h1.994zm-18.685 7.097h13.66l-9.112 8.974-4.548-4.478zm15.561 0h1.79v1.77L18.138 48.534l4.684 4.612H11.924V42.167l4.546 4.476zm8.465 0h1.81l10.914 10.98.47-.472 4.044-4.07v10.915h-11.04l4.686-4.615-.475-.468-10.409-10.25zm3.69 0h13.548v4.546l-4.514 4.542zm-7.152.482l2.128 2.096v16.109h4.276l-6.404 6.307-6.405-6.307h4.528V38.125zm-3.213 3.164v13.704h-4.549l-4.683-4.612zm6.675.246l8.983 8.846-4.686 4.615H35.95z" style="line-height:normal;font-variant-ligatures:normal;font-variant-position:normal;font-variant-caps:normal;font-variant-numeric:normal;font-variant-alternates:normal;font-feature-settings:normal;text-indent:0;text-align:start;text-decoration-line:none;text-decoration-style:solid;text-decoration-color:#000;text-transform:none;text-orientation:mixed;white-space:normal;shape-padding:0;isolation:auto;mix-blend-mode:normal;solid-color:#000;solid-opacity:1;marker:none" font-weight="400" font-family="sans-serif" overflow="visible" fill="#fff"/></g></svg>