<svg xmlns="http://www.w3.org/2000/svg" viewBox="0 0 512 512"><defs><style>.cls-1{fill:none;}.cls-2{fill:#0abf61;}</style></defs><title>画板 2</title><g id="图层_2" data-name="图层 2"><rect class="cls-1" width="512" height="512"/></g><g id="图层_1" data-name="图层 1"><rect class="cls-2" x="301.51" y="28.41" width="68.28" height="68.28"/><rect class="cls-2" x="369.79" y="96.69" width="60.69" height="60.69"/><rect class="cls-2" x="418.29" y="52.85" width="28.17" height="28.17"/><rect class="cls-2" x="430.48" y="157.38" width="45.52" height="45.52"/><path class="cls-2" d="M277.6,407.05a151.81,151.81,0,1,1-27.76-302.34c4.66-.43,9.28-.57,13.88-.57V28.41C160.86,28.34,67.49,98.22,42.37,202.62,13,324.87,88.22,447.82,210.46,477.23c100.44,24.16,201.23-22.41,250.35-107.56l-65.72-37.95A151.53,151.53,0,0,1,277.6,407.05Z"/></g></svg>