<svg xmlns="http://www.w3.org/2000/svg" width="64" height="64"><g fill="#a80030"><path d="M36.527 33.793c-.997.014.188.513 1.49.714a13.32 13.32 0 0 0 .976-.841c-.81.198-1.635.203-2.466.127M41.877 32.46c.593-.82 1.026-1.717 1.178-2.645-.133.662-.492 1.232-.83 1.835-1.863 1.173-.175-.697 0-1.407-2.004 2.521-.276 1.512-.348 2.216M43.851 27.32c.12-1.795-.353-1.227-.512-.542.186.096.333 1.265.512.542M32.747 2.786c.532.095 1.15.169 1.063.296.582-.128.714-.245-1.063-.296M33.81 3.082l-.376.077.35-.03.026-.047"/><path d="M50.397 28.001c.06 1.612-.471 2.394-.95 3.779l-.861.43c-.705 1.37.068.87-.437 1.958-1.1.979-3.34 3.062-4.056 3.252-.523-.011.354-.617.469-.854-1.473 1.011-1.182 1.518-3.435 2.133l-.066-.146c-5.557 2.614-13.276-2.567-13.175-9.636-.06.449-.169.337-.292.518-.286-3.637 1.68-7.29 4.996-8.782 3.244-1.606 7.047-.947 9.371 1.219-1.276-1.672-3.817-3.445-6.828-3.279-2.95.047-5.708 1.921-6.629 3.956-1.511.951-1.686 3.667-2.345 4.164-.886 6.51 1.667 9.323 5.984 12.632.68.458.191.528.283.877-1.434-.672-2.748-1.686-3.828-2.928.573.84 1.192 1.655 1.991 2.295-1.352-.458-3.159-3.277-3.686-3.392 2.331 4.174 9.458 7.32 13.19 5.76-1.726.064-3.92.035-5.86-.682-.815-.42-1.924-1.288-1.726-1.45 5.094 1.902 10.355 1.44 14.762-2.092 1.121-.873 2.346-2.359 2.7-2.38-.533.802.09.386-.319 1.094 1.117-1.802-.485-.733 1.155-3.111l.606.834c-.225-1.496 1.857-3.312 1.646-5.677.477-.723.533.778.026 2.442.703-1.846.185-2.142.366-3.666.195.512.451 1.057.583 1.597-.458-1.784.47-3.004.7-4.041-.226-.1-.707.789-.817-1.319.016-.915.254-.48.347-.705-.18-.103-.652-.805-.938-2.15.208-.316.555.82.838.866-.182-1.07-.495-1.886-.508-2.707-.826-1.727-.292.23-.963-.741-.88-2.745.73-.637.839-1.884 1.333 1.932 2.094 4.926 2.443 6.166-.267-1.512-.697-2.977-1.222-4.394.405.17-.653-3.111.526-.938-1.259-4.633-5.389-8.962-9.188-10.993.465.425 1.052.96.841 1.043-1.89-1.125-1.557-1.212-1.828-1.688-1.539-.626-1.64.05-2.66.002-2.9-1.54-3.46-1.376-6.13-2.34l.122.568c-1.922-.64-2.24.243-4.317.002-.126-.099.666-.357 1.318-.452-1.859.245-1.771-.366-3.59.068.448-.315.922-.523 1.4-.79-1.515.092-3.617.882-2.968.163-2.472 1.103-6.862 2.651-9.325 4.961l-.078-.517c-1.129 1.355-4.923 4.047-5.225 5.802l-.302.07c-.587.995-.967 2.122-1.433 3.145-.768 1.31-1.126.504-1.017.71-1.51 3.063-2.261 5.637-2.91 7.748.462.691.011 4.158.186 6.932-.759 13.704 9.618 27.009 20.96 30.08 1.662.595 4.134.573 6.237.634-2.481-.71-2.802-.376-5.219-1.219-1.743-.821-2.125-1.758-3.36-2.83l.489.864c-2.422-.857-1.409-1.061-3.379-1.685l.522-.682c-.785-.06-2.079-1.323-2.433-2.022l-.859.034c-1.031-1.273-1.581-2.19-1.541-2.901l-.277.494c-.315-.54-3.796-4.775-1.99-3.789-.336-.307-.782-.5-1.265-1.378l.367-.42c-.869-1.118-1.6-2.552-1.544-3.03.464.627.786.744 1.104.851-2.195-5.446-2.318-.3-3.98-5.544l.351-.028c-.27-.406-.433-.847-.65-1.28l.153-1.525c-1.58-1.827-.442-7.77-.214-11.028.158-1.325 1.32-2.736 2.202-4.948l-.538-.093c1.029-1.794 5.872-7.204 8.115-6.926 1.087-1.365-.215-.005-.428-.349 2.387-2.47 3.138-1.745 4.748-2.189 1.738-1.031-1.49.402-.667-.393 3.003-.767 2.128-1.744 6.046-2.134.414.236-.959.364-1.303.669 2.502-1.224 7.918-.946 11.436.68 4.082 1.907 8.668 7.546 8.85 12.852l.205.055c-.104 2.11.323 4.548-.417 6.789L50.397 28"/><path d="M25.647 35.161l-.14.699c.655.89 1.175 1.854 2.011 2.55-.602-1.175-1.049-1.66-1.871-3.249M27.195 35.1c-.346-.383-.551-.845-.781-1.305.22.809.67 1.503 1.088 2.21l-.307-.905M54.6 29.144l-.147.367a17.728 17.728 0 0 1-1.736 5.544 17.418 17.418 0 0 0 1.883-5.911M32.944 2.308c.674-.247 1.657-.135 2.372-.298-.932.078-1.86.125-2.775.243l.403.055M9.283 14.89c.155 1.437-1.082 1.995.274 1.047.727-1.637-.284-.452-.274-1.047M7.69 21.544c.312-.959.369-1.535.488-2.09-.863 1.104-.397 1.34-.488 2.09"/></g></svg>