<svg xmlns="http://www.w3.org/2000/svg" width="64" height="64"><g transform="translate(2.073 2.146) scale(.6238)"><circle r="48" cy="47.9" cx="48" class="st2" fill="#e75420"/><circle r="48" cy="47.9" cx="48" class="st2" fill="#e75420"/><circle r="48" cy="47.9" cx="48" opacity=".5" fill="url(#SVGID_1_)"/><circle r="48" cy="47.9" cx="48" fill="url(#SVGID_2_)"/></g><path d="M46.3 29.157c-3.056 0-7.36 1.746-11.29 3.805l-3.806-1.996c2.558-1.373 4.99-2.932 7.361-4.617l.686-.436a.692.692 0 0 0 .125-.936l-.374-.561c-.125-.312-.5-.437-.811-.25l-.125.125c-1.185.873-4.054 2.745-7.36 4.616-.562.312-1.123.686-1.685.936-5.177-2.246-8.983-3.369-11.228-3.369-2.184 0-4.679.5-4.679 4.616 0 2.184.874 4.804 4.679 4.804 3.056 0 7.36-1.747 11.29-3.806l3.806 1.934c-2.932 1.684-5.552 3.369-7.112 4.367l-.873.561c-.312.25-.437.686-.187.998l.374.562c.25.312.624.374.936.187l.561-.374c1.373-.936 3.993-2.62 6.862-4.305.562-.312 1.123-.686 1.684-.935 5.178 2.183 8.983 3.368 11.229 3.368 2.183 0 4.678-.499 4.678-4.616 0-2.059-.81-4.678-4.74-4.678m-28.633 4.74c-2.183 0-2.62-.998-2.62-2.744 0-2.184.686-2.558 2.62-2.558 1.747 0 4.74.873 8.796 2.433-3.743 1.934-6.737 2.87-8.796 2.87m28.632 2.62c-1.746 0-4.74-.874-8.795-2.433 3.805-1.81 6.737-2.808 8.795-2.808 2.184 0 2.62.999 2.62 2.745.063 2.183-.623 2.495-2.62 2.495" fill="#ad2d11" opacity=".5"/><path d="M46.3 28.72c-3.056 0-7.36 1.747-11.29 3.805l-3.806-1.996c2.558-1.372 4.99-2.932 7.361-4.616l.686-.437a.692.692 0 0 0 .125-.936l-.374-.561c-.125-.312-.5-.437-.811-.25l-.125.125c-1.185.874-4.054 2.745-7.36 4.616-.562.312-1.123.687-1.685.936-5.177-2.246-8.983-3.368-11.228-3.368-2.184 0-4.679.499-4.679 4.616 0 2.183.874 4.803 4.679 4.803 3.056 0 7.36-1.747 11.29-3.805l3.806 1.934c-2.932 1.684-5.552 3.368-7.112 4.366l-.873.562c-.312.25-.437.686-.187.998l.374.561c.25.312.624.374.936.187l.561-.374c1.373-.936 3.993-2.62 6.862-4.304.562-.312 1.123-.686 1.684-.936 5.178 2.183 8.983 3.369 11.229 3.369 2.183 0 4.678-.5 4.678-4.617 0-2.058-.81-4.616-4.74-4.678m-28.633 4.74c-2.183 0-2.62-.997-2.62-2.744 0-2.183.686-2.558 2.62-2.558 1.747 0 4.74.874 8.796 2.433-3.743 1.934-6.737 2.87-8.796 2.87M46.3 36.08c-1.746 0-4.74-.874-8.795-2.433 3.805-1.81 6.737-2.807 8.795-2.807 2.184 0 2.62.998 2.62 2.745.063 2.183-.623 2.495-2.62 2.495" fill="#fdfbfa"/></svg>