<svg xmlns="http://www.w3.org/2000/svg" width="64" height="64" viewBox="0 0 16.933 16.933"><g stroke-width="1.332"><path d="M8.467.54A7.927 7.927 0 00.54 8.46v6.135a1.802 1.802 0 001.802 1.798H8.47A7.928 7.928 0 008.467.54z" fill="#51a2da"/><path d="M10.074 3.801c-1.237 0-2.329.93-2.48 2.152-.01.102-.014.177-.015.27v4.99c0 .958-.715 1.61-1.61 1.61a1.61 1.61 0 01-1.62-1.611c.014-.982.798-1.603 1.715-1.63L7 9.573v-1.32l-.928.007c-1.668-.015-2.995 1.29-3.044 2.952a2.947 2.947 0 002.94 2.932c1.52 0 2.785-1.188 2.923-2.674l.008-1.893 1.153-.007c.894.006.884-1.34-.009-1.322L8.9 8.256v-2.03c.002-.586.558-1.103 1.175-1.103s1.268.308 1.268 1.105c0 .114-.003.18-.009.222a.66.66 0 101.307.186c.02-.148.022-.278.022-.408 0-1.406-1.257-2.427-2.588-2.427z" fill="#fafafa"/></g></svg>