<?xml version="1.0" encoding="UTF-8" standalone="no"?>
<svg
   xmlns:dc="http://purl.org/dc/elements/1.1/"
   xmlns:cc="http://web.resource.org/cc/"
   xmlns:rdf="http://www.w3.org/1999/02/22-rdf-syntax-ns#"
   xmlns:svg="http://www.w3.org/2000/svg"
   xmlns="http://www.w3.org/2000/svg"
   xmlns:sodipodi="http://sodipodi.sourceforge.net/DTD/sodipodi-0.dtd"
   xmlns:inkscape="http://www.inkscape.org/namespaces/inkscape"
   version="1.0"
   width="468pt"
   height="363pt"
   viewBox="0 0 468 363"
   preserveAspectRatio="xMidYMid meet"
   id="svg2"
   sodipodi:version="0.32"
   inkscape:version="0.44"
   sodipodi:docname="blinky2.svg"
   sodipodi:docbase="/home/Fox/mmedia/pictures/Computer">
  <defs
     id="defs33" />
  <sodipodi:namedview
     inkscape:window-height="640"
     inkscape:window-width="839"
     inkscape:pageshadow="2"
     inkscape:pageopacity="0.0"
     guidetolerance="10.0"
     gridtolerance="10.0"
     objecttolerance="10.0"
     borderopacity="1.0"
     bordercolor="#666666"
     pagecolor="#ffffff"
     id="base"
     inkscape:zoom="0.83305785"
     inkscape:cx="292.5"
     inkscape:cy="269.12925"
     inkscape:window-x="94"
     inkscape:window-y="158"
     inkscape:current-layer="svg2" />
  <metadata
     id="metadata4">
Made by Mateusz Viste &quot;Fox&quot;
<rdf:RDF>
  <cc:Work
     rdf:about="">
    <dc:format>image/svg+xml</dc:format>
    <dc:type
       rdf:resource="http://purl.org/dc/dcmitype/StillImage" />
  </cc:Work>
</rdf:RDF>
</metadata>
  <g
     id="g1896"
     transform="translate(-16.04462,29.94544)">
    <path
       id="path4690"
       d="M 81.626984,212.23016 L 86.428571,130.60317 L 115.2381,69.142857 L 155.57143,30.730159 L 208.38889,12.484127 L 271.76984,17.285714 L 316.90476,48.015873 L 354.35714,94.111111 L 378.36508,168.05556 L 403.33333,161.33333 L 417.7381,165.1746 L 390.84921,196.86508 L 387.96825,217.99206 L 405.25397,250.64286 L 383.16667,239.11905 L 356.27778,209.34921 L 337.07143,231.43651 L 338.03175,244.88095 L 345.71429,272.73016 L 342.83333,289.05556 L 306.34127,252.56349 L 291.93651,266.96825 L 244.88095,281.37302 L 186.30159,281.37302 L 145.96825,271.76984 L 134.44444,268.88889 L 113.31746,286.1746 L 111.39683,271.76984 L 119.07937,251.60317 L 81.626984,212.23016 z "
       style="fill:#bfcfe7;fill-opacity:1;fill-rule:evenodd;stroke:none;stroke-width:1px;stroke-linecap:butt;stroke-linejoin:miter;stroke-opacity:1" />
    <path
       transform="translate(-0.960317,-3.84127)"
       sodipodi:open="true"
       sodipodi:end="6.1866673"
       sodipodi:start="0"
       d="M 161.33334,182.94048 A 23.527779,24.488094 0 1 1 161.22383,180.5806"
       sodipodi:ry="24.488094"
       sodipodi:rx="23.527779"
       sodipodi:cy="182.94048"
       sodipodi:cx="137.80556"
       id="path2025"
       style="opacity:1;fill:white;fill-opacity:1;fill-rule:evenodd;stroke:none;stroke-width:5;stroke-linecap:round;stroke-linejoin:round;stroke-miterlimit:4;stroke-dasharray:none;stroke-opacity:1"
       sodipodi:type="arc" />
    <path
       transform="translate(0.960317,-4.801588)"
       sodipodi:open="true"
       sodipodi:end="6.1866673"
       sodipodi:start="0"
       d="M 211.26983,187.74207 A 18.246031,19.686508 0 1 1 211.18491,185.84491"
       sodipodi:ry="19.686508"
       sodipodi:rx="18.246031"
       sodipodi:cy="187.74207"
       sodipodi:cx="193.0238"
       id="path2912"
       style="opacity:1;fill:white;fill-opacity:1;fill-rule:evenodd;stroke:none;stroke-width:5;stroke-linecap:round;stroke-linejoin:round;stroke-miterlimit:4;stroke-dasharray:none;stroke-opacity:1"
       sodipodi:type="arc" />
    <path
       d="M 211.39845,8.940835 C 168.9858,11.9988 135.6141,33.53751 107.02877,75.950155 C 90.808265,100.14797 86.021885,114.90597 76.980945,168.22093 C 76.183215,173.00731 75.917305,183.77666 76.449125,195.21079 C 77.512765,216.08473 76.58208,213.95745 87.617345,221.13702 C 90.14349,222.73248 95.99351,229.11432 100.64693,235.09729 C 105.1674,241.21322 110.4856,247.46211 112.21402,248.79166 L 115.53789,251.3178 L 111.41629,260.22579 C 105.03445,273.78719 105.43331,292.53385 112.08106,292.53385 C 114.60721,292.53385 124.31292,285.48723 131.62545,278.44062 L 137.60842,272.5906 L 150.90392,277.77585 C 198.2359,296.25659 254.74178,292.13499 298.61693,267.13945 L 310.31697,260.35874 L 314.83744,265.41103 C 317.36359,268.33604 322.81474,274.85084 326.80339,279.90312 C 340.49775,296.92136 343.15685,298.38387 346.48073,290.27362 C 351.93188,277.50993 350.60233,266.60762 340.89662,241.87799 L 338.50343,235.62911 L 347.67732,226.85408 C 358.71259,216.35064 357.38304,216.61655 363.36601,224.46089 C 371.74218,235.62911 389.02633,248.39279 402.32183,253.44508 C 411.62868,256.90191 411.76163,253.71099 403.38547,240.01663 C 387.96269,215.287 387.032,207.97447 397.40249,193.34942 C 404.58206,182.97893 412.69232,175.13459 419.47302,171.94367 C 424.92418,169.41752 425.19009,167.68911 421.20144,163.96637 C 414.42073,157.85044 400.99228,156.25498 389.95701,160.11067 C 383.30926,162.50386 382.11267,161.70613 380.38425,154.1277 C 359.37736,60.66033 297.95216,4.154455 221.37007,8.27606 C 219.10984,8.409015 214.72232,8.674925 211.39845,8.940835 z M 262.58612,20.374965 C 285.05552,25.959075 301.9408,35.9307 318.56018,53.48076 C 348.20914,85.12405 365.09443,123.01623 373.47059,176.59709 C 373.60355,176.863 375.59787,175.4005 377.99106,173.40617 C 385.30359,167.29024 400.06159,163.43455 409.23549,165.56183 C 412.82527,166.2266 412.69232,166.49251 400.85932,178.72437 C 380.2513,199.99717 379.0547,215.287 396.33885,239.61776 C 398.06727,241.87799 398.46613,243.3405 397.40249,243.3405 C 390.8877,243.3405 362.16942,212.22903 362.83419,205.84719 C 363.63192,197.86989 352.99552,203.454 346.61368,214.48927 C 344.75231,217.54723 341.69435,221.53588 339.70002,223.39725 L 336.11024,226.72113 L 332.3875,222.20066 C 328.93067,218.21201 328.39885,217.9461 325.8727,219.67451 L 323.2136,221.53588 L 325.8727,226.05635 C 334.24887,239.61776 342.89094,264.6133 343.0239,274.58492 C 343.0239,285.62019 339.83298,285.48723 331.98863,274.05311 C 325.8727,264.87921 308.58855,246.13255 304.33399,244.00528 C 295.29305,239.2189 290.24076,242.40982 297.15443,248.52575 C 303.93513,254.37577 303.93513,254.37577 287.04985,263.68261 C 256.20428,280.5679 183.4779,284.6895 156.75394,271.26105 C 141.99594,263.68261 118.59586,245.86665 112.74584,237.75639 L 109.95378,233.63479 L 113.1447,234.43252 C 114.87312,234.83138 121.78678,236.69275 128.56748,238.55412 C 155.82326,245.9996 231.47465,247.1962 245.96675,240.41549 C 264.84636,231.64046 266.97364,219.00974 248.35994,226.05635 C 215.25414,238.68708 147.04823,234.96434 106.364,218.47792 C 96.52533,214.48927 87.617345,210.76653 86.553705,210.36766 C 84.160515,209.43698 85.35711,167.29024 88.28212,150.272 C 96.25942,103.6048 121.25496,58.931915 150.63801,38.85571 C 153.69598,36.72843 158.48236,33.53751 161.27441,31.543185 C 179.88811,18.779505 232.40534,13.06244 262.58612,20.374965 z M 127.50384,264.74626 C 129.23226,267.00649 130.42885,268.86786 130.16294,269.13377 C 124.31292,273.12242 115.40494,278.04176 114.74016,277.37698 C 113.54357,276.18039 116.60153,267.00649 119.26063,263.68261 C 122.3186,259.82692 123.64815,259.95988 127.50384,264.74626 z "
       id="path8"
       style="fill:black;stroke:none" />
    <path
       d="M 123.38224,152.39928 C 107.56059,160.9084 102.77421,189.49373 115.27198,200.92786 C 136.01296,220.20633 164.99715,206.24606 165.39602,176.863 C 165.66193,158.51521 139.7357,143.4913 123.38224,152.39928 z M 146.91527,159.31294 C 161.67328,168.48684 163.93351,179.78801 153.96189,193.74829 C 138.00729,215.95177 105.83218,195.34375 115.8038,169.28457 C 120.05836,157.98339 136.14592,152.79815 146.91527,159.31294 z "
       id="path10"
       style="fill:black;stroke:none" />
    <path
       d="M 130.96067,164.7641 C 118.4629,169.94934 120.45723,191.48805 133.48682,192.55169 C 139.33684,193.08351 141.73003,191.48805 144.38913,185.10621 C 149.97324,171.67776 142.3948,160.11067 130.96067,164.7641 z M 141.46412,170.61412 C 142.26185,171.81071 142.3948,173.14026 141.86298,173.67208 C 140.26752,175.4005 130.96067,172.34253 130.56181,169.94934 C 129.76408,165.69478 138.67207,166.2266 141.46412,170.61412 z "
       id="path12"
       style="fill:black;stroke:none" />
    <path
       d="M 187.33359,160.9084 C 167.12443,167.02433 167.78921,198.1358 188.39723,205.58128 C 197.30522,208.63925 202.49046,207.97447 207.94162,202.92218 C 225.62463,186.0369 209.93594,153.99474 187.33359,160.9084 z M 199.4325,168.22093 C 211.13254,174.33686 212.86095,187.4994 203.15524,197.73694 C 195.04498,206.37901 179.48925,196.40739 179.48925,182.84598 C 179.48925,170.0823 189.19496,162.90273 199.4325,168.22093 z "
       id="path14"
       style="fill:black;stroke:none" />
    <path
       d="M 186.80177,175.00163 C 181.08471,183.77666 185.87109,197.20512 193.84839,194.67897 C 201.69273,192.15283 204.7507,188.29713 204.7507,180.85165 C 204.7507,172.47549 191.32224,168.08797 186.80177,175.00163 z M 198.10295,176.19823 C 200.23023,178.72437 198.76772,180.7187 195.44385,179.92097 C 192.25293,179.12324 190.92338,177.39482 192.11997,175.53345 C 193.31657,173.67208 196.24158,173.93799 198.10295,176.19823 z "
       id="path16"
       style="fill:black;stroke:none" />
  </g>
</svg>
