<svg xmlns="http://www.w3.org/2000/svg" width="64" height="64"><path d="M3.003 43.989l.842-14.32L8.9 18.887l7.076-6.739 9.266-3.2 11.118.841 7.918 5.391 6.57 8.087 4.212 12.972 4.38-1.18 2.528.675-4.718 5.559-.505 3.706 3.033 5.728-3.875-2.021-4.718-5.223-3.369 3.875.169 2.358 1.347 4.886-.505 2.864-6.402-6.402-2.527 2.527-8.255 2.527H21.366l-7.076-1.684-2.022-.506-3.706 3.033-.337-2.527 1.348-3.538z" fill="#bfcfe7" fill-rule="evenodd"/><path d="M16.817 38.176a4.128 4.296 0 0 1-4.028 4.295 4.128 4.296 0 0 1-4.222-4.087 4.128 4.296 0 0 1 3.824-4.492 4.128 4.296 0 0 1 4.407 3.87M25.915 38.85a3.2 3.454 0 0 1-3.124 3.453 3.2 3.454 0 0 1-3.275-3.286 3.2 3.454 0 0 1 2.966-3.611 3.2 3.454 0 0 1 3.417 3.111" fill="#fff" fill-rule="evenodd"/><path d="M25.769 8.325c-7.44.537-13.295 4.316-18.31 11.756-2.846 4.245-3.685 6.834-5.271 16.187-.14.84-.187 2.729-.094 4.735.187 3.662.024 3.288 1.96 4.548.443.28 1.47 1.4 2.286 2.45.792 1.072 1.726 2.168 2.029 2.402l.583.443-.723 1.562c-1.12 2.38-1.05 5.668.116 5.668.444 0 2.146-1.236 3.429-2.472l1.05-1.026 2.332.91c8.304 3.241 18.216 2.518 25.913-1.867l2.053-1.19.793.887a89.77 89.77 0 0 1 2.1 2.542c2.402 2.986 2.868 3.242 3.451 1.82.956-2.24.723-4.152-.98-8.49l-.42-1.097 1.61-1.539c1.936-1.843 1.703-1.796 2.752-.42 1.47 1.96 4.502 4.199 6.834 5.085 1.633.606 1.656.047.187-2.356-2.706-4.338-2.869-5.621-1.05-8.187 1.26-1.819 2.683-3.195 3.872-3.755.956-.443 1.003-.746.303-1.4-1.19-1.072-3.545-1.352-5.48-.676-1.167.42-1.377.28-1.68-1.05C51.729 17.4 40.953 7.486 27.518 8.21a93.74 93.74 0 0 0-1.75.117zm8.98 2.006c3.941.98 6.904 2.73 9.819 5.808 5.201 5.551 8.163 12.199 9.633 21.598.023.047.373-.21.793-.56 1.283-1.072 3.872-1.749 5.481-1.375.63.116.607.163-1.47 2.309-3.615 3.731-3.824 6.414-.792 10.682.303.397.373.653.186.653-1.143 0-6.18-5.458-6.064-6.577.14-1.4-1.726-.42-2.846 1.516-.326.536-.863 1.236-1.212 1.563l-.63.583-.653-.793c-.607-.7-.7-.747-1.143-.443l-.467.326.467.793c1.47 2.38 2.985 6.764 3.009 8.513 0 1.936-.56 1.913-1.936-.093-1.073-1.61-4.105-4.898-4.852-5.271-1.586-.84-2.472-.28-1.26.793 1.19 1.026 1.19 1.026-1.772 2.659-5.411 2.962-18.17 3.685-22.858 1.33-2.589-1.33-6.694-4.456-7.72-5.878l-.49-.723.56.14c.303.07 1.516.396 2.706.723 4.781 1.306 18.053 1.516 20.595.326 3.312-1.54 3.685-3.755.42-2.519-5.808 2.216-17.773 1.563-24.91-1.33-1.727-.7-3.29-1.352-3.476-1.422-.42-.163-.21-7.557.303-10.543 1.4-8.187 5.785-16.024 10.94-19.545.536-.374 1.375-.933 1.865-1.283 3.266-2.24 12.479-3.242 17.773-1.96zM11.05 53.201c.303.397.513.724.466.77-1.026.7-2.589 1.563-2.705 1.446-.21-.21.326-1.819.793-2.402.536-.677.77-.653 1.446.186z"/><path d="M10.328 33.493C7.552 34.985 6.713 40 8.905 42.006c3.639 3.382 8.723.933 8.793-4.222.047-3.219-4.501-5.854-7.37-4.292zm4.128 1.212c2.59 1.61 2.986 3.592 1.237 6.041-2.8 3.895-8.444.28-6.695-4.291.747-1.983 3.57-2.893 5.458-1.75z"/><path d="M11.657 35.662c-2.192.91-1.842 4.688.444 4.874 1.026.094 1.446-.186 1.912-1.306.98-2.356-.35-4.385-2.356-3.568zm1.843 1.026c.14.21.163.443.07.536-.28.304-1.913-.233-1.983-.653-.14-.746 1.423-.653 1.913.117zM21.547 34.985c-3.545 1.073-3.429 6.531.186 7.837 1.563.537 2.473.42 3.43-.466 3.101-2.963.35-8.584-3.616-7.37zm2.122 1.283c2.053 1.073 2.356 3.382.653 5.178-1.422 1.516-4.151-.233-4.151-2.612 0-2.24 1.702-3.499 3.498-2.566z"/><path d="M21.454 37.458c-1.003 1.539-.163 3.895 1.236 3.452 1.376-.444 1.912-1.12 1.912-2.426 0-1.47-2.355-2.24-3.149-1.026zm1.982.21c.373.443.117.792-.466.653-.56-.14-.793-.444-.583-.77.21-.327.723-.28 1.05.116z"/></svg>