<svg xmlns="http://www.w3.org/2000/svg" width="64" height="64"><g fill="#eeeeec"><path d="M51.346 2.61c-12.457 0-14.793 17.742-7.786 17.742S63.803 2.61 51.346 2.61zM30.662 18.154c3.731.227 7.825-14.24.812-13.33-7.01.91-4.544 13.102-.812 13.33zM13.563 27.143c2.653-1.168.342-12.593-4.17-9.478-4.511 3.117 1.516 10.645 4.17 9.478zM21.04 21.163c3.159-.644 3.332-13.602-2.302-11.278-5.634 2.325-.855 11.923 2.302 11.278zM37.535 50.16c.56 4.28-3.14 6.394-6.764 3.635-11.538-8.784 19.103-13.166 17.083-25.167-1.677-9.962-32.24-6.895-35.721 8.692-2.356 10.542 9.698 25.167 22.275 25.167 6.187 0 13.323-5.586 14.658-12.664 1.02-5.396-11.999-3.234-11.53.337z"/></g></svg>