<?xml version="1.0" encoding="UTF-8" standalone="no"?>
<!-- Created with Inkscape (http://www.inkscape.org/) -->

<svg
   xmlns:dc="http://purl.org/dc/elements/1.1/"
   xmlns:cc="http://creativecommons.org/ns#"
   xmlns:rdf="http://www.w3.org/1999/02/22-rdf-syntax-ns#"
   xmlns:svg="http://www.w3.org/2000/svg"
   xmlns="http://www.w3.org/2000/svg"
   xmlns:xlink="http://www.w3.org/1999/xlink"
   xmlns:sodipodi="http://sodipodi.sourceforge.net/DTD/sodipodi-0.dtd"
   xmlns:inkscape="http://www.inkscape.org/namespaces/inkscape"
   width="97.895836mm"
   height="34.395828mm"
   viewBox="0 0 97.895836 34.395828"
   version="1.1"
   id="svg1002"
   inkscape:version="0.92.4 (5da689c313, 2019-01-14)"
   sodipodi:docname="Guix-horizontal-white.svg">
  <defs
     id="defs996">
    <linearGradient
       inkscape:collect="always"
       xlink:href="#linearGradient4702-3"
       id="linearGradient3191"
       gradientUnits="userSpaceOnUse"
       gradientTransform="matrix(-0.23495877,0,0,0.23495877,91.19196,113.60431)"
       x1="142.96875"
       y1="63.65625"
       x2="177.04297"
       y2="69.791016" />
    <linearGradient
       id="linearGradient4702-3">
      <stop
         style="stop-color:#ff0000;stop-opacity:0.58431375;"
         offset="0"
         id="stop4704-1" />
      <stop
         style="stop-color:#ffcc00;stop-opacity:1;"
         offset="1"
         id="stop4706-8" />
    </linearGradient>
    <linearGradient
       inkscape:collect="always"
       xlink:href="#linearGradient4696-5"
       id="linearGradient3194"
       gradientUnits="userSpaceOnUse"
       gradientTransform="matrix(-0.13156879,0,0,0.13156879,80.539875,11.943926)"
       x1="108.08774"
       y1="1025.709"
       x2="80.655251"
       y2="1043.709" />
    <linearGradient
       id="linearGradient4696-5">
      <stop
         style="stop-color:#ffb638;stop-opacity:1;"
         offset="0"
         id="stop4698-6" />
      <stop
         style="stop-color:#f0ae26;stop-opacity:1;"
         offset="1"
         id="stop4700-2" />
    </linearGradient>
    <linearGradient
       inkscape:collect="always"
       xlink:href="#linearGradient4702-3"
       id="linearGradient3197"
       gradientUnits="userSpaceOnUse"
       gradientTransform="matrix(0.23495877,0,0,0.23495877,43.465723,-86.665824)"
       x1="113.5146"
       y1="1004.8033"
       x2="78.000107"
       y2="922.07178" />
    <linearGradient
       inkscape:collect="always"
       xlink:href="#linearGradient4702-3"
       id="linearGradient3201"
       gradientUnits="userSpaceOnUse"
       gradientTransform="matrix(0.23495877,0,0,0.23495877,43.47332,113.60439)"
       x1="142.96875"
       y1="63.65625"
       x2="176.60477"
       y2="70.667412" />
  </defs>
  <sodipodi:namedview
     id="base"
     pagecolor="#ffffff"
     bordercolor="#666666"
     borderopacity="1.0"
     inkscape:pageopacity="0.0"
     inkscape:pageshadow="2"
     inkscape:zoom="5.1999999"
     inkscape:cx="185"
     inkscape:cy="64.99999"
     inkscape:document-units="mm"
     inkscape:current-layer="layer1"
     showgrid="false"
     fit-margin-top="0"
     fit-margin-left="0"
     fit-margin-right="0"
     fit-margin-bottom="0"
     inkscape:window-width="2558"
     inkscape:window-height="1438"
     inkscape:window-x="0"
     inkscape:window-y="0"
     inkscape:window-maximized="0"
     inkscape:pagecheckerboard="true" />
  <metadata
     id="metadata999">
    <rdf:RDF>
      <cc:Work
         rdf:about="">
        <dc:format>image/svg+xml</dc:format>
        <dc:type
           rdf:resource="http://purl.org/dc/dcmitype/StillImage" />
        <dc:title></dc:title>
      </cc:Work>
    </rdf:RDF>
  </metadata>
  <g
     inkscape:label="Tavolo 1"
     inkscape:groupmode="layer"
     id="layer1"
     transform="translate(-33.905637,-119.97491)">
    <path
       id="path3368"
       d="m 86.617654,124.76489 c -0.423744,0.77443 -0.853932,1.40491 -1.292276,1.90169 -0.423738,0.4822 -0.891008,0.86789 -1.402408,1.16012 -0.4968,0.27763 -1.060471,0.47786 -1.688766,0.59473 -0.613688,0.10229 -1.318334,0.15423 -2.121972,0.1542 -0.592809,0 -1.125569,-0.0304 -1.593315,-0.0881 -0.0019,0 -0.0055,0 -0.0074,0 -0.0593,-0.004 -0.181776,-0.0241 -0.308382,-0.044 -0.133353,-0.0209 -0.269664,-0.041 -0.484606,-0.0808 -3.939894,-0.72898 -5.246566,2.00618 -5.528873,2.76077 -0.04419,0.11811 -0.06608,0.1909 -0.06608,0.1909 l -4.787289,13.3486 -2.936981,4.9929 h 5.866625 c 2.409481,-5.3648 4.725959,-16.56636 7.202956,-17.55582 0.536884,0.0751 1.20237,0.11012 2.004491,0.11012 1.052039,0 1.993985,-0.12613 2.826851,-0.38915 0.832855,-0.26302 1.581999,-0.67096 2.254136,-1.22621 0.672132,-0.56984 1.280298,-1.29665 1.820931,-2.17337 0.555236,-0.87667 1.081821,-1.92987 1.578626,-3.15725 l -1.336271,-0.49929 z"
       style="font-style:normal;font-weight:bold;font-size:144px;line-height:125%;font-family:Sans;-inkscape-font-specification:'Sans Bold';letter-spacing:0px;word-spacing:0px;fill:#ffbf2d;fill-opacity:1;stroke:none;stroke-width:0.26458332"
       inkscape:connector-curvature="0" />
    <path
       inkscape:connector-curvature="0"
       id="path3370"
       d="m 86.617503,124.76544 c -0.423744,0.77444 -0.853903,1.40404 -1.292249,1.90082 -0.42373,0.48221 -0.891185,0.86807 -1.402585,1.16031 -0.123034,0.0687 -0.249873,0.13192 -0.381077,0.19111 -0.0013,0 -0.0021,0.003 -0.0034,0.003 -0.165148,0.11615 -0.377566,0.21584 -0.665464,0.28437 -3.320495,0.7906 -5.58219,3.74975 -5.794629,4.03601 0.09632,-0.0792 0.193281,-0.14386 0.290073,-0.19339 0.01455,-0.008 0.02866,-0.0148 0.04323,-0.0217 0.0024,0 0.0045,-0.003 0.0068,-0.003 0.01688,-0.008 0.0343,-0.0148 0.05119,-0.0217 0.536882,0.0751 1.202224,0.11033 2.004346,0.11033 1.052039,0 1.993923,-0.12716 2.826787,-0.39015 0.832858,-0.26302 1.58133,-0.6699 2.253469,-1.22515 0.672132,-0.56984 1.28057,-1.29712 1.821204,-2.17382 0.555246,-0.87673 1.082114,-1.93046 1.578911,-3.15786 L 86.6175,124.76563 Z"
       style="font-style:normal;font-weight:bold;font-size:144px;line-height:125%;font-family:Sans;-inkscape-font-specification:'Sans Bold';letter-spacing:0px;word-spacing:0px;fill:url(#linearGradient3201);fill-opacity:1;stroke:none;stroke-width:0.26458332" />
    <path
       id="path3372"
       d="m 48.047658,124.76489 c 0.423744,0.77443 0.853927,1.40491 1.292273,1.90169 0.423741,0.4822 0.891008,0.86789 1.402411,1.16012 0.496797,0.27763 1.060468,0.47786 1.688764,0.59473 0.61369,0.10231 1.318334,0.15423 2.121974,0.1542 0.59281,0 1.125569,-0.0304 1.593313,-0.0881 0.0019,0 0.0054,0 0.0074,0 0.0593,-0.004 0.181774,-0.0241 0.308383,-0.044 0.133352,-0.0209 0.269663,-0.041 0.484603,-0.0808 3.939897,-0.72898 5.246568,2.00618 5.528876,2.76077 0.04418,0.11811 0.06608,0.1909 0.06608,0.1909 l 4.787283,13.3486 2.936986,4.9929 h -5.866625 c -2.409481,-5.3648 -4.725955,-16.56636 -7.202955,-17.55582 -0.536885,0.0751 -1.202373,0.11012 -2.004494,0.11012 -1.052037,0 -1.993985,-0.12613 -2.826848,-0.38915 -0.832903,-0.26302 -1.582047,-0.67096 -2.254182,-1.22621 -0.672128,-0.56984 -1.280297,-1.29665 -1.820928,-2.17337 -0.555239,-0.87667 -1.081828,-1.92987 -1.578631,-3.15725 l 1.336328,-0.49929 z"
       style="font-style:normal;font-weight:bold;font-size:144px;line-height:125%;font-family:Sans;-inkscape-font-specification:'Sans Bold';letter-spacing:0px;word-spacing:0px;fill:#ffbf2d;fill-opacity:1;stroke:none;stroke-width:0.26458332"
       inkscape:connector-curvature="0" />
    <path
       inkscape:connector-curvature="0"
       style="font-style:normal;font-weight:bold;font-size:144px;line-height:125%;font-family:Sans;-inkscape-font-specification:'Sans Bold';letter-spacing:0px;word-spacing:0px;fill:url(#linearGradient3197);fill-opacity:1;stroke:none;stroke-width:0.26458332"
       d="m 48.04742,124.7647 c 0.423744,0.77444 0.853927,1.40491 1.292273,1.9017 0.423741,0.4822 0.891008,0.86788 1.402408,1.16011 0.496798,0.27763 1.060471,0.47784 1.688767,0.59473 0.61369,0.10232 1.318334,0.15423 2.121974,0.15418 0.592809,0 1.125569,-0.0303 1.593313,-0.0881 0.0019,0 0.0054,0 0.0074,0 0.0593,-0.004 0.181774,-0.0243 0.308383,-0.0441 0.133352,-0.0209 0.269666,-0.041 0.484603,-0.0808 3.939899,-0.72898 5.246568,2.00615 5.528876,2.76077 0.04418,0.11811 0.06608,0.19089 0.06608,0.19089 l 4.787287,13.3486 2.467067,4.9929 h -5.396755 c -2.409481,-5.36482 -4.725955,-16.56636 -7.202955,-17.55584 -0.536882,0.0751 -1.202373,0.11012 -2.004494,0.11012 -1.052034,0 -1.993982,-0.12613 -2.826846,-0.38913 -0.832858,-0.26302 -1.582002,-0.67095 -2.254136,-1.22621 -0.672129,-0.56983 -1.280298,-1.29667 -1.820929,-2.17337 -0.555238,-0.87667 -1.081828,-1.92987 -1.578631,-3.15724 l 1.336329,-0.4993 z"
       id="path3374"
       sodipodi:nodetypes="ccccccccsscccccccccccc" />
    <path
       sodipodi:nodetypes="ccc"
       d="m 67.327732,144.66087 -2.925458,4.99499 h 5.863693"
       style="font-style:normal;font-weight:bold;font-size:144px;line-height:125%;font-family:Sans;-inkscape-font-specification:'Sans Bold';letter-spacing:0px;word-spacing:0px;fill:url(#linearGradient3194);fill-opacity:1;stroke:none;stroke-width:0.26458332"
       id="path3376"
       inkscape:connector-curvature="0" />
    <path
       inkscape:connector-curvature="0"
       id="path3378"
       d="m 48.048055,124.76544 -1.336611,0.49824 c 0.155249,0.38357 0.313322,0.75054 0.474358,1.10001 0.0322,0.0699 0.06425,0.13851 0.09669,0.20703 1.27e-4,2.4e-4 -1.25e-4,0 0,0 0.03229,0.0682 0.06531,0.13563 0.09783,0.20246 0.01085,0.0222 0.02212,0.0439 0.03299,0.066 0.05454,0.11112 0.10863,0.22143 0.163804,0.32874 2.51e-4,0 7.94e-4,0 0.0011,0 0.03289,0.0639 0.06585,0.12737 0.09897,0.18997 0.133549,0.25252 0.268925,0.49417 0.406101,0.72462 0.03425,0.0575 0.0679,0.11332 0.102378,0.16949 0.01336,0.0217 0.02641,0.0433 0.03982,0.0649 0.02132,0.0343 0.04341,0.0685 0.06484,0.10237 0.03379,0.0548 0.06692,0.10906 0.101238,0.16266 0.05468,0.0854 0.111212,0.16897 0.167219,0.25141 0.01413,0.0209 0.02786,0.0419 0.04209,0.0626 0.03554,0.0515 0.07086,0.10208 0.106929,0.15243 0.07177,0.10015 0.144563,0.19807 0.218408,0.29348 0.03693,0.0477 0.07404,0.0945 0.11148,0.14105 0.07488,0.093 0.150574,0.18364 0.22751,0.27188 0.05833,0.0669 0.117951,0.13266 0.177456,0.1968 0.01881,0.0204 0.03796,0.0403 0.05687,0.0603 0.07916,0.0836 0.158824,0.1647 0.240022,0.24344 0.0405,0.0393 0.08071,0.078 0.121716,0.11602 0.0412,0.0383 0.08228,0.0756 0.123994,0.11264 0.04151,0.0368 0.08312,0.0724 0.12513,0.10805 0.126026,0.10412 0.25528,0.20312 0.386765,0.29689 0.350623,0.25006 0.72078,0.46355 1.111377,0.64045 0.04882,0.0222 0.09728,0.0439 0.14674,0.0648 0.09924,0.0421 0.199618,0.0819 0.301451,0.11946 0.05075,0.0188 0.101028,0.0359 0.152432,0.0535 0.0514,0.0175 0.103788,0.0347 0.155842,0.0512 0.05205,0.0164 0.104074,0.0324 0.15698,0.0478 0.105812,0.0307 0.213833,0.06 0.323061,0.0864 0.05461,0.0132 0.109477,0.0254 0.164941,0.0375 0.05547,0.0122 0.110901,0.0241 0.16722,0.0353 0.05668,0.0114 0.113085,0.0217 0.170632,0.0319 0.114351,0.0204 0.230312,0.0385 0.348086,0.0546 0.176662,0.0241 0.357095,0.0442 0.54147,0.0591 0.122917,0.01 0.247901,0.018 0.37425,0.0238 0.126347,0.006 0.254704,0.009 0.38449,0.0114 0.06489,0 0.129903,0 0.195657,0 0.100261,0 0.198609,-2e-5 0.294621,0 0.192024,-0.003 0.375378,-0.007 0.550572,-0.0138 0.08721,-0.003 0.17286,-0.007 0.255947,-0.0114 0.08344,-0.004 0.165262,-0.01 0.244568,-0.0159 0.237926,-0.0172 0.457306,-0.039 0.658638,-0.0671 0.01688,0.007 0.03432,0.0138 0.05119,0.0217 0.0024,0 0.0045,0.003 0.0068,0.003 0.01458,0.007 0.02867,0.014 0.04323,0.0217 0.09685,0.0496 0.193689,0.11414 0.290071,0.19339 -0.211989,-0.28568 -2.473751,-3.24533 -5.794632,-4.03599 -0.287893,-0.0685 -0.500313,-0.16824 -0.665458,-0.2844 -0.0013,0 -0.0021,-0.003 -0.0034,-0.003 -0.130906,-0.059 -0.258305,-0.12252 -0.381077,-0.1911 -2.52e-4,-1.1e-4 -7.94e-4,1.3e-4 -0.0011,0 -0.03168,-0.018 -0.06308,-0.0369 -0.09442,-0.0557 -2.49e-4,-1.3e-4 -7.94e-4,1.1e-4 -0.0011,0 -0.03162,-0.019 -0.06201,-0.0383 -0.09328,-0.058 -0.0628,-0.0396 -0.125138,-0.0803 -0.186555,-0.12284 -0.03058,-0.0212 -0.06076,-0.0429 -0.091,-0.0648 -0.06091,-0.0442 -0.120213,-0.0893 -0.179731,-0.1365 -0.02956,-0.0236 -0.05838,-0.0464 -0.08759,-0.0705 -0.02943,-0.0243 -0.05851,-0.0488 -0.08759,-0.0739 -0.02887,-0.0249 -0.05679,-0.0506 -0.08532,-0.0762 -0.142647,-0.12819 -0.281082,-0.26488 -0.415202,-0.4118 -0.02682,-0.0294 -0.05428,-0.0597 -0.08077,-0.0898 -0.09747,-0.11046 -0.194527,-0.2277 -0.291208,-0.3515 -0.01204,-0.0153 -0.02326,-0.031 -0.03526,-0.0466 -0.02715,-0.0353 -0.05482,-0.0706 -0.0819,-0.10691 -0.135396,-0.18165 -0.269775,-0.37707 -0.403781,-0.5858 -0.0536,-0.0835 -0.107008,-0.1692 -0.160393,-0.25709 -0.02669,-0.044 -0.05299,-0.088 -0.07963,-0.13309 -0.07966,-0.13472 -0.159681,-0.27503 -0.238884,-0.41976 z"
       style="font-style:normal;font-weight:bold;font-size:144px;line-height:125%;font-family:Sans;-inkscape-font-specification:'Sans Bold';letter-spacing:0px;word-spacing:0px;fill:url(#linearGradient3191);fill-opacity:1;stroke:none;stroke-width:0.26458332" />
    <path
       inkscape:connector-curvature="0"
       id="path4181"
       style="font-style:normal;font-weight:bold;font-size:144px;line-height:125%;font-family:Sans;-inkscape-font-specification:'Sans Bold';letter-spacing:0px;word-spacing:0px;fill:#ffffff;fill-opacity:1;stroke:none;stroke-width:0.26458332"
       d="m 90.303808,148.44801 c -0.829779,0.40335 -1.691236,0.70588 -2.584374,0.90757 -0.893159,0.20167 -1.815118,0.3025 -2.765882,0.3025 -2.149327,0 -3.852072,-0.59928 -5.108239,-1.79782 -1.256176,-1.2043 -1.88426,-2.83501 -1.88426,-4.89214 0,-2.08019 0.639609,-3.71666 1.918833,-4.90945 1.279215,-1.1928 3.030939,-1.78917 5.255178,-1.7892 0.858567,3e-5 1.679686,0.0807 2.463363,0.24202 0.789419,0.16137 1.53275,0.4005 2.229993,0.71742 v 2.67078 c -0.720294,-0.4091 -1.437693,-0.71451 -2.152203,-0.91617 -0.708766,-0.20167 -1.420407,-0.30253 -2.134917,-0.30253 -1.325325,0 -2.348127,0.37166 -3.068402,1.11501 -0.714524,0.73758 -1.071785,1.79493 -1.07178,3.17212 -5e-6,1.36564 0.345731,2.42014 1.037207,3.16346 0.691464,0.74335 1.673928,1.11501 2.947394,1.11501 0.345726,0 0.665531,-0.0201 0.959417,-0.0605 0.299627,-0.0461 0.56757,-0.11523 0.803833,-0.20744 v -2.50658 h -2.031196 v -2.22999 h 5.186032 v 6.20594" />
    <path
       inkscape:connector-curvature="0"
       id="path4183"
       style="font-style:normal;font-weight:bold;font-size:144px;line-height:125%;font-family:Sans;-inkscape-font-specification:'Sans Bold';letter-spacing:0px;word-spacing:0px;fill:#ffffff;fill-opacity:1;stroke:none;stroke-width:0.26458332"
       d="m 91.753976,145.6389 v -5.91206 h 3.111619 v 0.96805 c -6e-6,0.52438 -0.0029,1.18417 -0.0087,1.97933 -0.0058,0.78946 -0.0087,1.3167 -0.0087,1.58175 -3e-6,0.77791 0.02016,1.33972 0.0605,1.68545 0.04033,0.33999 0.109479,0.58775 0.207441,0.74332 0.126765,0.2017 0.290989,0.35727 0.492673,0.46676 0.207436,0.10951 0.443688,0.16422 0.708758,0.16422 0.645366,0 1.152443,-0.24775 1.521235,-0.74332 0.368776,-0.49554 0.553169,-1.18414 0.553177,-2.06576 v -4.7798 h 3.094331 v 9.6806 h -3.094331 v -1.40023 c -0.466751,0.5647 -0.962302,0.98245 -1.486662,1.25328 -0.518609,0.26506 -1.091954,0.39759 -1.720035,0.39759 -1.11788,0 -1.970693,-0.34285 -2.558441,-1.02854 -0.581991,-0.68572 -0.872982,-1.68259 -0.872982,-2.99064" />
    <path
       inkscape:connector-curvature="0"
       id="path4185"
       style="font-style:normal;font-weight:bold;font-size:144px;line-height:125%;font-family:Sans;-inkscape-font-specification:'Sans Bold';letter-spacing:0px;word-spacing:0px;fill:#ffffff;fill-opacity:1;stroke:none;stroke-width:0.26458332"
       d="m 103.24776,139.72684 h 3.09433 v 9.6806 h -3.09433 v -9.6806 m 0,-3.76852 h 3.09433 v 2.52386 h -3.09433 v -2.52386" />
    <path
       inkscape:connector-curvature="0"
       id="path4187"
       style="font-style:normal;font-weight:bold;font-size:144px;line-height:125%;font-family:Sans;-inkscape-font-specification:'Sans Bold';letter-spacing:0px;word-spacing:0px;fill:#ffffff;fill-opacity:1;stroke:none;stroke-width:0.26458332"
       d="m 111.77878,144.45476 -3.49193,-4.72792 h 3.27584 l 1.97934,2.86959 2.00526,-2.86959 h 3.27584 l -3.49192,4.71064 3.66479,4.96996 h -3.27584 l -2.17813,-3.05978 -2.15221,3.05978 h -3.27584 l 3.6648,-4.95268" />
  </g>
</svg>
