<?xml version="1.0" encoding="UTF-8" standalone="no"?>
<!-- Created with Inkscape (http://www.inkscape.org/) -->

<svg
   width="200"
   height="200"
   id="svg2"
   version="1.1"
   inkscape:version="1.3.2 (091e20ef0f, 2023-11-25)"
   sodipodi:docname="Guix-head.svg"
   inkscape:export-filename="guix.png"
   inkscape:export-xdpi="96"
   inkscape:export-ydpi="96"
   xmlns:inkscape="http://www.inkscape.org/namespaces/inkscape"
   xmlns:sodipodi="http://sodipodi.sourceforge.net/DTD/sodipodi-0.dtd"
   xmlns:xlink="http://www.w3.org/1999/xlink"
   xmlns="http://www.w3.org/2000/svg"
   xmlns:svg="http://www.w3.org/2000/svg"
   xmlns:rdf="http://www.w3.org/1999/02/22-rdf-syntax-ns#"
   xmlns:cc="http://creativecommons.org/ns#"
   xmlns:dc="http://purl.org/dc/elements/1.1/">
  <title
     id="title3310">GNU Guix Head-Only Logotype for Screens</title>
  <defs
     id="defs4">
    <linearGradient
       id="linearGradient4696-5">
      <stop
         style="stop-color:#ffb638;stop-opacity:1;"
         offset="0"
         id="stop4698-6" />
      <stop
         style="stop-color:#f0ae26;stop-opacity:1;"
         offset="1"
         id="stop4700-2" />
    </linearGradient>
    <linearGradient
       id="linearGradient4702-3">
      <stop
         style="stop-color:#ff0000;stop-opacity:0.58431375;"
         offset="0"
         id="stop4704-1" />
      <stop
         style="stop-color:#ffcc00;stop-opacity:1;"
         offset="1"
         id="stop4706-8" />
    </linearGradient>
    <linearGradient
       inkscape:collect="always"
       xlink:href="#linearGradient4702-3"
       id="linearGradient3227"
       gradientUnits="userSpaceOnUse"
       gradientTransform="matrix(0.88803314,0,0,0.88803314,447.24006,1287.5886)"
       x1="142.96875"
       y1="63.65625"
       x2="176.60477"
       y2="70.667412" />
    <linearGradient
       inkscape:collect="always"
       xlink:href="#linearGradient4702-3"
       id="linearGradient3230"
       gradientUnits="userSpaceOnUse"
       gradientTransform="matrix(0.88803314,0,0,0.88803314,447.21135,530.66177)"
       x1="113.5146"
       y1="1004.8033"
       x2="78.000107"
       y2="922.07178" />
    <linearGradient
       inkscape:collect="always"
       xlink:href="#linearGradient4696-5"
       id="linearGradient3232"
       gradientUnits="userSpaceOnUse"
       gradientTransform="matrix(-0.49726789,0,0,0.49726789,587.33413,903.36003)"
       x1="108.08774"
       y1="1025.709"
       x2="80.655251"
       y2="1043.709" />
    <linearGradient
       inkscape:collect="always"
       xlink:href="#linearGradient4702-3"
       id="linearGradient3234"
       gradientUnits="userSpaceOnUse"
       gradientTransform="matrix(-0.88803314,0,0,0.88803314,627.59398,1287.5883)"
       x1="142.96875"
       y1="63.65625"
       x2="177.04297"
       y2="69.791016" />
  </defs>
  <sodipodi:namedview
     id="base"
     pagecolor="#242424"
     bordercolor="#ffbf2d"
     borderopacity="1"
     inkscape:pageopacity="0"
     inkscape:pageshadow="2"
     inkscape:zoom="1.5005237"
     inkscape:cx="101.63118"
     inkscape:cy="96.299712"
     inkscape:document-units="px"
     inkscape:current-layer="layer1"
     showgrid="false"
     inkscape:window-width="1920"
     inkscape:window-height="1011"
     inkscape:window-x="0"
     inkscape:window-y="32"
     inkscape:window-maximized="1"
     inkscape:showpageshadow="false"
     showborder="true"
     borderlayer="true"
     inkscape:object-nodes="true"
     inkscape:snap-global="false"
     inkscape:pagecheckerboard="true"
     inkscape:deskcolor="#242424">
    <inkscape:grid
       type="axonomgrid"
       id="grid3004"
       units="mm"
       empspacing="5"
       visible="false"
       enabled="true"
       snapvisiblegridlinesonly="true"
       spacingy="3.7mm"
       originx="-441.1181"
       originy="-571.53284"
       gridanglex="30"
       gridanglez="30" />
  </sodipodi:namedview>
  <metadata
     id="metadata7">
    <rdf:RDF>
      <cc:Work
         rdf:about="">
        <dc:format>image/svg+xml</dc:format>
        <dc:type
           rdf:resource="http://purl.org/dc/dcmitype/StillImage" />
        <dc:title>GNU Guix Head-Only Logotype for Screens</dc:title>
        <dc:date>2016-12-16</dc:date>
        <dc:creator>
          <cc:Agent>
            <dc:title>Luis Felipe López Acevedo</dc:title>
          </cc:Agent>
        </dc:creator>
        <dc:description>Variant of the original logo displaying the stylized gnu head only (no text).</dc:description>
        <cc:license
           rdf:resource="http://creativecommons.org/licenses/by-sa/4.0/" />
      </cc:Work>
      <cc:License
         rdf:about="http://creativecommons.org/licenses/by-sa/4.0/">
        <cc:permits
           rdf:resource="http://creativecommons.org/ns#Reproduction" />
        <cc:permits
           rdf:resource="http://creativecommons.org/ns#Distribution" />
        <cc:requires
           rdf:resource="http://creativecommons.org/ns#Notice" />
        <cc:requires
           rdf:resource="http://creativecommons.org/ns#Attribution" />
        <cc:permits
           rdf:resource="http://creativecommons.org/ns#DerivativeWorks" />
        <cc:requires
           rdf:resource="http://creativecommons.org/ns#ShareAlike" />
      </cc:License>
    </rdf:RDF>
  </metadata>
  <g
     inkscape:label="layer"
     inkscape:groupmode="layer"
     id="layer1"
     transform="translate(-426,-1291.769)">
    <g
       id="g1"
       transform="matrix(1.2830459,0,0,1.2830459,-163.53054,-374.73398)"
       style="stroke-width:0.779396">
      <path
         inkscape:connector-curvature="0"
         style="font-style:normal;font-weight:bold;font-size:144px;line-height:125%;font-family:Sans;-inkscape-font-specification:'Sans Bold';letter-spacing:0px;word-spacing:0px;fill:#ffbf2d;fill-opacity:1;stroke:none;stroke-width:0.779396"
         d="m 610.30526,1329.77 c -1.60155,2.927 -3.22746,5.3099 -4.88419,7.1875 -1.60153,1.8225 -3.36759,3.2802 -5.30044,4.3847 -1.87767,1.0493 -4.00808,1.8061 -6.38274,2.2478 -2.31945,0.3866 -4.98268,0.5829 -8.02005,0.5828 -2.24054,0 -4.25412,-0.1148 -6.02198,-0.333 -0.007,0 -0.0206,0 -0.0278,0 -0.22413,-0.016 -0.68703,-0.091 -1.16554,-0.1665 -0.50401,-0.079 -1.0192,-0.155 -1.83158,-0.3053 -14.89094,-2.7552 -19.82954,7.5824 -20.89653,10.4344 -0.16701,0.4464 -0.24975,0.7215 -0.24975,0.7215 l -18.09369,50.4514 -11.1004,18.8708 h 22.17307 c 9.1067,-20.2764 17.86189,-62.613 27.22377,-66.3527 2.02917,0.2838 4.54439,0.4162 7.57603,0.4162 3.97621,0 7.53632,-0.4767 10.68416,-1.4708 3.1478,-0.9941 5.97921,-2.5359 8.51957,-4.6345 2.54034,-2.1537 4.83892,-4.9007 6.88226,-8.2143 2.09853,-3.3134 4.08877,-7.294 5.96646,-11.9329 l -5.05064,-1.8871 z"
         id="path3207" />
      <path
         style="font-style:normal;font-weight:bold;font-size:144px;line-height:125%;font-family:Sans;-inkscape-font-specification:'Sans Bold';letter-spacing:0px;word-spacing:0px;fill:url(#linearGradient3227);fill-opacity:1;stroke:none;stroke-width:0.779396"
         d="m 610.30469,1329.7721 c -1.60155,2.927 -3.22735,5.3066 -4.88409,7.1842 -1.6015,1.8225 -3.36826,3.2809 -5.30111,4.3854 -0.46501,0.2598 -0.9444,0.4986 -1.44029,0.7223 -0.005,0 -0.008,0.01 -0.0129,0.01 -0.62418,0.439 -1.42702,0.8158 -2.51514,1.0748 -12.5499,2.9881 -21.09804,14.1723 -21.90096,15.2542 0.36406,-0.2993 0.73051,-0.5437 1.09634,-0.7309 0.055,-0.029 0.10832,-0.056 0.16338,-0.082 0.009,0 0.017,-0.01 0.0258,-0.013 0.0638,-0.03 0.12965,-0.056 0.19347,-0.082 2.02916,0.2838 4.54384,0.417 7.57548,0.417 3.97621,0 7.53609,-0.4806 10.68392,-1.4746 3.14781,-0.9941 5.97668,-2.5319 8.51705,-4.6305 2.54034,-2.1537 4.83995,-4.9025 6.88329,-8.216 2.09853,-3.3135 4.08984,-7.2961 5.9675,-11.9351 l -5.05175,-1.8831 z"
         id="path3209"
         inkscape:connector-curvature="0" />
      <path
         inkscape:connector-curvature="0"
         style="font-style:normal;font-weight:bold;font-size:144px;line-height:125%;font-family:Sans;-inkscape-font-specification:'Sans Bold';letter-spacing:0px;word-spacing:0px;fill:#ffbf2d;fill-opacity:1;stroke:none;stroke-width:0.779396"
         d="m 464.5289,1329.77 c 1.60155,2.927 3.22744,5.3099 4.88418,7.1875 1.60154,1.8225 3.36759,3.2802 5.30045,4.3847 1.87766,1.0493 4.00807,1.8061 6.38273,2.2478 2.31946,0.3867 4.98268,0.5829 8.02006,0.5828 2.24054,0 4.25412,-0.1148 6.02197,-0.333 0.007,0 0.0206,0 0.0278,0 0.22411,-0.016 0.68702,-0.091 1.16554,-0.1665 0.50401,-0.079 1.0192,-0.155 1.83157,-0.3053 14.89095,-2.7552 19.82955,7.5824 20.89654,10.4344 0.167,0.4464 0.24975,0.7215 0.24975,0.7215 l 18.09367,50.4514 11.10042,18.8708 h -22.17307 c -9.1067,-20.2764 -17.86188,-62.613 -27.22377,-66.3527 -2.02917,0.2838 -4.5444,0.4162 -7.57604,0.4162 -3.9762,0 -7.53632,-0.4767 -10.68415,-1.4708 -3.14781,-0.9941 -5.97922,-2.5359 -8.51957,-4.6345 -2.54033,-2.1537 -4.83892,-4.9007 -6.88225,-8.2143 -2.09854,-3.3134 -4.0888,-7.294 -5.96648,-11.9329 l 5.05069,-1.8871 z"
         id="path3211" />
      <path
         sodipodi:nodetypes="ccccccccsscccccccccccc"
         id="path3213"
         d="m 464.528,1329.7693 c 1.60155,2.927 3.22744,5.3099 4.88418,7.1875 1.60154,1.8225 3.36759,3.2802 5.30044,4.3847 1.87766,1.0493 4.00808,1.806 6.38274,2.2478 2.31946,0.3867 4.98268,0.5829 8.02006,0.5827 2.24054,0 4.25412,-0.1147 6.02197,-0.3329 0.007,0 0.0206,0 0.0278,0 0.22412,-0.016 0.68702,-0.092 1.16554,-0.1665 0.50401,-0.079 1.01921,-0.155 1.83157,-0.3053 14.89096,-2.7552 19.82955,7.5823 20.89654,10.4344 0.167,0.4464 0.24975,0.7215 0.24975,0.7215 l 18.09368,50.4514 9.32435,18.8708 h -20.39701 c -9.1067,-20.2765 -17.86188,-62.613 -27.22377,-66.3528 -2.02916,0.2838 -4.5444,0.4162 -7.57604,0.4162 -3.97619,0 -7.53631,-0.4767 -10.68414,-1.4707 -3.14781,-0.9941 -5.97922,-2.5359 -8.51957,-4.6345 -2.54033,-2.1537 -4.83892,-4.9008 -6.88225,-8.2143 -2.09854,-3.3134 -4.0888,-7.294 -5.96648,-11.9329 l 5.05069,-1.8871 z"
         style="font-style:normal;font-weight:bold;font-size:144px;line-height:125%;font-family:Sans;-inkscape-font-specification:'Sans Bold';letter-spacing:0px;word-spacing:0px;fill:url(#linearGradient3230);fill-opacity:1;stroke:none;stroke-width:0.779396"
         inkscape:connector-curvature="0" />
      <path
         inkscape:connector-curvature="0"
         id="path3215"
         style="font-style:normal;font-weight:bold;font-size:144px;line-height:125%;font-family:Sans;-inkscape-font-specification:'Sans Bold';letter-spacing:0px;word-spacing:0px;fill:url(#linearGradient3232);fill-opacity:1;stroke:none;stroke-width:0.779396"
         d="m 537.39847,1404.9674 -11.05685,18.8787 h 22.16199"
         sodipodi:nodetypes="ccc" />
      <path
         style="font-style:normal;font-weight:bold;font-size:144px;line-height:125%;font-family:Sans;-inkscape-font-specification:'Sans Bold';letter-spacing:0px;word-spacing:0px;fill:url(#linearGradient3234);fill-opacity:1;stroke:none;stroke-width:0.779396"
         d="m 464.5304,1329.7721 -5.05176,1.8831 c 0.58677,1.4497 1.18421,2.8367 1.79285,4.1575 0.12171,0.2642 0.24284,0.5235 0.36543,0.7825 4.8e-4,9e-4 -4.7e-4,0 0,0 0.12205,0.2578 0.24685,0.5126 0.36975,0.7652 0.041,0.084 0.0836,0.1658 0.12469,0.2494 0.20612,0.42 0.41057,0.8369 0.6191,1.2425 9.5e-4,0 0.003,0 0.004,0 0.12431,0.2417 0.2489,0.4814 0.37406,0.718 0.50475,0.9544 1.01641,1.8677 1.53487,2.7387 0.12946,0.2175 0.25662,0.4283 0.38694,0.6406 0.0505,0.082 0.0998,0.1636 0.15048,0.2451 0.0806,0.1298 0.16409,0.2591 0.24507,0.3869 0.1277,0.2071 0.25294,0.4122 0.38263,0.6148 0.20666,0.3229 0.42033,0.6386 0.63201,0.9502 0.0534,0.079 0.1053,0.1585 0.15907,0.2365 0.13433,0.1947 0.26783,0.3858 0.40414,0.5761 0.27127,0.3785 0.54638,0.7486 0.82548,1.1092 0.13956,0.1803 0.27984,0.3573 0.42134,0.5331 0.28302,0.3516 0.5691,0.6941 0.85988,1.0276 0.22045,0.2528 0.4458,0.5014 0.6707,0.7438 0.0711,0.077 0.14347,0.1523 0.21496,0.2278 0.2992,0.3161 0.60028,0.6225 0.90717,0.9201 0.15307,0.1484 0.30505,0.2947 0.46003,0.4385 0.15573,0.1446 0.31099,0.2857 0.46864,0.4257 0.15688,0.1392 0.31416,0.2738 0.47293,0.4084 0.47632,0.3935 0.96484,0.7677 1.46179,1.1221 1.32519,0.9451 2.72421,1.752 4.20048,2.4206 0.18453,0.084 0.36767,0.1658 0.55461,0.245 0.37508,0.1592 0.75446,0.3096 1.13934,0.4515 0.19182,0.071 0.38184,0.1356 0.57612,0.2021 0.19427,0.066 0.39227,0.1313 0.58901,0.1934 0.19673,0.062 0.39335,0.1225 0.59331,0.1806 0.39992,0.1162 0.80819,0.2266 1.22102,0.3267 0.20641,0.05 0.41377,0.096 0.6234,0.1419 0.20964,0.046 0.41915,0.091 0.63201,0.1333 0.21423,0.043 0.42741,0.082 0.64491,0.1204 0.43219,0.077 0.87047,0.1455 1.3156,0.2064 0.6677,0.091 1.34965,0.1669 2.0465,0.2235 0.46457,0.038 0.93695,0.068 1.41449,0.09 0.47753,0.023 0.96266,0.036 1.45319,0.043 0.24526,0 0.49097,0 0.73949,0 0.37894,0 0.75065,-10e-5 1.11353,0 0.72576,-0.01 1.41875,-0.026 2.0809,-0.052 0.32961,-0.013 0.65333,-0.026 0.96736,-0.043 0.31535,-0.017 0.62461,-0.038 0.92435,-0.06 0.89925,-0.065 1.7284,-0.1472 2.48934,-0.2536 0.0638,0.025 0.1297,0.052 0.19346,0.082 0.009,0 0.017,0.01 0.0258,0.013 0.0551,0.026 0.10837,0.053 0.16339,0.082 0.36603,0.1874 0.73205,0.4314 1.09633,0.7309 -0.80122,-1.0797 -9.34961,-12.2658 -21.90097,-15.2541 -1.0881,-0.2591 -1.89095,-0.6359 -2.51512,-1.0749 -0.005,0 -0.008,-0.01 -0.0129,-0.01 -0.49476,-0.2231 -0.97627,-0.4631 -1.44029,-0.7223 -9.5e-4,-4e-4 -0.003,5e-4 -0.004,0 -0.11973,-0.068 -0.2384,-0.1395 -0.35685,-0.2106 -9.4e-4,-5e-4 -0.003,4e-4 -0.004,0 -0.1195,-0.072 -0.23435,-0.1447 -0.35255,-0.2193 -0.23737,-0.1497 -0.47296,-0.3034 -0.70509,-0.4643 -0.11559,-0.08 -0.22965,-0.1622 -0.34395,-0.2451 -0.2302,-0.167 -0.45435,-0.3376 -0.6793,-0.5159 -0.11171,-0.089 -0.22064,-0.1753 -0.33105,-0.2666 -0.11123,-0.092 -0.22113,-0.1846 -0.33105,-0.2794 -0.10912,-0.094 -0.21462,-0.1912 -0.32245,-0.2881 -0.53914,-0.4845 -1.06236,-1.0011 -1.56927,-1.5564 -0.10138,-0.111 -0.20516,-0.2257 -0.30526,-0.3396 -0.36838,-0.4175 -0.73522,-0.8606 -1.10063,-1.3285 -0.0455,-0.058 -0.0879,-0.1173 -0.13328,-0.1763 -0.10261,-0.1333 -0.20718,-0.2668 -0.30956,-0.4041 -0.5119,-0.6867 -1.01979,-1.4253 -1.52627,-2.2142 -0.20259,-0.3156 -0.40444,-0.6395 -0.60621,-0.9717 -0.10088,-0.1661 -0.20027,-0.3327 -0.30095,-0.503 -0.30109,-0.5092 -0.60352,-1.0395 -0.90287,-1.5865 z"
         id="path3217"
         inkscape:connector-curvature="0" />
    </g>
  </g>
</svg>
