<?xml version="1.0" encoding="UTF-8" standalone="no"?>
<!-- Created with Inkscape (http://www.inkscape.org/) -->

<svg
   width="64mm"
   height="64mm"
   viewBox="0 0 64 64"
   version="1.1"
   id="svg1"
   sodipodi:docname="Guix-no-text.svg"
   inkscape:version="1.3.2 (091e20ef0f, 2023-11-25)"
   xmlns:inkscape="http://www.inkscape.org/namespaces/inkscape"
   xmlns:sodipodi="http://sodipodi.sourceforge.net/DTD/sodipodi-0.dtd"
   xmlns:xlink="http://www.w3.org/1999/xlink"
   xmlns="http://www.w3.org/2000/svg"
   xmlns:svg="http://www.w3.org/2000/svg">
  <sodipodi:namedview
     id="namedview1"
     pagecolor="#ffffff"
     bordercolor="#666666"
     borderopacity="1.0"
     inkscape:showpageshadow="2"
     inkscape:pageopacity="0.0"
     inkscape:pagecheckerboard="0"
     inkscape:deskcolor="#ffffff"
     inkscape:document-units="px"
     inkscape:zoom="1.1766123"
     inkscape:cx="196.32635"
     inkscape:cy="102.41266"
     inkscape:window-width="1920"
     inkscape:window-height="1011"
     inkscape:window-x="0"
     inkscape:window-y="0"
     inkscape:window-maximized="1"
     inkscape:current-layer="layer1" />
  <defs
     id="defs1">
    <linearGradient
       inkscape:collect="always"
       xlink:href="#linearGradient4702-3"
       id="linearGradient3960"
       gradientUnits="userSpaceOnUse"
       gradientTransform="matrix(0.23495877,0,0,0.23495877,8.6608674,-185.50135)"
       x1="113.5146"
       y1="1004.8033"
       x2="78.000107"
       y2="922.07178" />
    <linearGradient
       id="linearGradient4702-3">
      <stop
         style="stop-color:#ff0000;stop-opacity:0.58431375;"
         offset="0"
         id="stop4704-1" />
      <stop
         style="stop-color:#ffcc00;stop-opacity:1;"
         offset="1"
         id="stop4706-8" />
    </linearGradient>
  </defs>
  <g
     inkscape:label="Calque 1"
     inkscape:groupmode="layer"
     id="layer1">
    <g
       id="g1"
       transform="matrix(1.5470741,0,0,1.5470741,-18.322695,-27.368565)">
      <path
         id="path3346"
         d="m 51.812795,25.929356 c -0.423744,0.77443 -0.853933,1.404916 -1.292276,1.9017 -0.423738,0.48219 -0.891008,0.867884 -1.402408,1.160106 -0.4968,0.27763 -1.060471,0.477858 -1.688766,0.594738 -0.613688,0.10228 -1.318334,0.154215 -2.121972,0.154186 -0.592809,0 -1.125569,-0.03036 -1.593315,-0.0881 -0.0019,0 -0.0055,0 -0.0074,0 -0.0593,-0.0043 -0.181776,-0.02421 -0.308382,-0.04406 -0.133353,-0.02088 -0.269664,-0.041 -0.484606,-0.08077 -3.939894,-0.728977 -5.246566,2.006167 -5.528873,2.760774 -0.04419,0.118102 -0.06608,0.190886 -0.06608,0.190886 l -4.787289,13.348597 -2.936981,4.992899 h 5.866625 c 2.409481,-5.364797 4.725959,-16.566351 7.202956,-17.555831 0.536884,0.07509 1.20237,0.110122 2.004491,0.110122 1.052039,0 1.993985,-0.126122 2.826851,-0.389139 0.832855,-0.263009 1.581999,-0.670954 2.254136,-1.226201 0.672132,-0.569846 1.280298,-1.296659 1.820931,-2.173369 0.555236,-0.876686 1.081821,-1.929874 1.578626,-3.157254 l -1.336315,-0.49929 z"
         style="font-style:normal;font-weight:bold;font-size:144px;line-height:125%;font-family:Sans;-inkscape-font-specification:'Sans Bold';letter-spacing:0px;word-spacing:0px;fill:#ffbf2d;fill-opacity:1;stroke:none;stroke-width:0.264583"
         inkscape:connector-curvature="0" />
      <path
         inkscape:connector-curvature="0"
         style="font-style:normal;font-weight:bold;font-size:144px;line-height:125%;font-family:Sans;-inkscape-font-specification:'Sans Bold';letter-spacing:0px;word-spacing:0px;fill:url(#linearGradient3960);fill-opacity:1;stroke:none;stroke-width:0.264583"
         d="m 13.242564,25.929165 c 0.423744,0.774428 0.853927,1.404911 1.292273,1.901696 0.423738,0.482192 0.891008,0.867886 1.402408,1.160107 0.496798,0.27763 1.060471,0.477859 1.688767,0.594739 0.61369,0.102309 1.318334,0.154215 2.121974,0.154186 0.592809,0 1.125566,-0.03036 1.593313,-0.0881 0.0019,0 0.0054,0 0.0074,0 0.0593,-0.0043 0.181777,-0.02421 0.308385,-0.04406 0.13335,-0.02088 0.269664,-0.041 0.4846,-0.08076 3.9399,-0.728977 5.246569,2.006164 5.528877,2.760771 0.04419,0.118105 0.06608,0.190889 0.06608,0.190889 l 4.787286,13.348605 2.467068,4.992899 H 29.59424 c -2.409478,-5.364824 -4.725956,-16.566361 -7.202956,-17.555839 -0.536881,0.07509 -1.202372,0.110119 -2.004493,0.110119 -1.052034,0 -1.993982,-0.126121 -2.826846,-0.389138 C 16.727087,32.722265 15.977943,32.31432 15.305809,31.759074 14.63368,31.18923 14.025511,30.462417 13.48488,29.585707 12.929642,28.709026 12.403052,27.655839 11.906249,26.42845 l 1.336329,-0.499285 z"
         id="path3352"
         sodipodi:nodetypes="ccccccccsscccccccccccc" />
    </g>
  </g>
</svg>
