<svg xmlns="http://www.w3.org/2000/svg" xmlns:xlink="http://www.w3.org/1999/xlink" width="64" height="64" viewBox="0 0 60 60"><defs><linearGradient id="d"><stop offset="0" stop-color="#699ad7"/><stop offset=".243" stop-color="#7eb1dd"/><stop offset="1" stop-color="#7ebae4"/></linearGradient><linearGradient id="c"><stop offset="0" stop-color="#415e9a"/><stop offset=".232" stop-color="#4a6baf"/><stop offset="1" stop-color="#5277c3"/></linearGradient><linearGradient id="b"><stop offset="0" stop-color="#637ddf"/><stop offset=".232" stop-color="#649afa"/><stop offset="1" stop-color="#719efa"/></linearGradient><linearGradient id="a"><stop offset="0" stop-color="#7363df"/><stop offset=".232" stop-color="#6478fa"/><stop offset="1" stop-color="#719efa"/></linearGradient><linearGradient xlink:href="#d" id="e" gradientUnits="userSpaceOnUse" gradientTransform="translate(70.65 -1055.151)" x1="200.597" y1="351.411" x2="290.087" y2="506.188"/><linearGradient xlink:href="#c" id="g" gradientUnits="userSpaceOnUse" gradientTransform="translate(864.696 -1491.34)" x1="-584.199" y1="782.336" x2="-496.297" y2="937.714"/></defs><g transform="translate(-17.901 114.182) scale(.11761)"><path d="M309.549-710.388l122.197 211.675-56.157.527-32.624-56.87-32.856 56.566-27.903-.011-14.29-24.69 46.81-80.49-33.23-57.826z" id="f" opacity="1" fill="url(#e)" fill-opacity="1" fill-rule="evenodd" stroke="none" stroke-width="3" stroke-linecap="butt" stroke-linejoin="round" stroke-miterlimit="4" stroke-dasharray="none" stroke-opacity="1"/><use xlink:href="#f" transform="rotate(60 407.112 -715.787)" width="100%" height="100%"/><use xlink:href="#f" transform="rotate(-60 407.312 -715.7)" width="100%" height="100%"/><use xlink:href="#f" transform="rotate(180 407.419 -715.756)" width="100%" height="100%"/><path id="h" d="M309.549-710.388l122.197 211.675-56.157.527-32.624-56.87-32.856 56.566-27.903-.011-14.29-24.69 46.81-80.49-33.23-57.826z" style="isolation:auto;mix-blend-mode:normal;solid-color:#000;solid-opacity:1" color="#000" clip-rule="nonzero" display="inline" overflow="visible" visibility="visible" opacity="1" color-interpolation="sRGB" color-interpolation-filters="linearRGB" fill="url(#g)" fill-opacity="1" fill-rule="evenodd" stroke="none" stroke-width="3" stroke-linecap="butt" stroke-linejoin="round" stroke-miterlimit="4" stroke-dasharray="none" stroke-dashoffset="0" stroke-opacity="1" color-rendering="auto" image-rendering="auto" shape-rendering="auto" text-rendering="auto"/><use xlink:href="#h" transform="rotate(120 407.34 -716.084)" width="100%" height="100%"/><use xlink:href="#h" transform="rotate(-120 407.288 -715.87)" width="100%" height="100%"/></g></svg>