<svg xmlns="http://www.w3.org/2000/svg" version="1.1" id="Layer_1" x="0" y="0" xml:space="preserve" width="64" height="64"><style type="text/css" id="style4416"/><g id="layer3" transform="translate(0 -32)"><g id="layer1-5" transform="translate(-3.865 28.546) scale(.1188)"><path id="path7590" d="M302.857 47.04c-139.695 0-252.96 113.252-252.96 252.96 0 139.708 113.265 252.96 252.96 252.96S555.817 439.707 555.817 300c0-139.708-113.265-252.96-252.96-252.96zm1.211 35.033c120.365 0 218.02 97.575 218.02 217.927 0 120.365-97.668 217.927-218.02 217.927-64.992 0-123.311-28.484-163.235-73.605 16.416-12.74 43.88-9.632 77.704-5.777 16.21 1.844 34.688 3.954 53.76 4.38 53.283.309 110.614-9.416 145.999-24.877 22.876-10.033 37.523-16.64 46.679-24.97 3.301-2.708 5.035-7.232 6.801-11.926l1.211-3.168c1.483-3.791 3.612-11.95 4.566-16.398.425-1.947.634-4.041-.746-5.124l-4.938.931c-15.526 9.31-54.316 27.043-90.655 27.765-45.03.942-135.788-45.332-145.254-50.219l-.931-1.118a28071.5 28071.5 0 0 0-18.728-44.443c65.328 43.02 119.49 66.83 161 70.53 46.152 4.102 82.153-21.096 97.55-31.864 3.004-2.05 5.3-3.658 6.242-4.006l1.025-1.677c-2.553-16.222-26.767-94.722-45.001-113.575-5.055-5.171-9.074-10.204-17.237-15.001-65.998-38.467-222.702-61.634-230.04-62.704l-1.21.373-.466 1.025-.653 36.15c-5.377-1.78-22.05-7.239-45.933-13.79 31.161-38.556 78.915-72.766 162.49-72.766zm57.58 115.346c1.112-.017 2.235-.037 3.354 0 36.971 1.328 66.018 32.467 64.754 69.412-.658 17.873-8.193 34.387-21.243 46.586-13.089 12.263-30.1 18.655-48.076 18.075-36.907-1.38-65.953-32.52-64.754-69.413.632-17.898 8.209-34.518 21.336-46.678 12.259-11.497 27.948-17.732 44.629-17.982zm-1.77 19.752c-10.768.655-20.928 5.027-28.883 12.485-9.066 8.51-14.415 20.034-14.814 32.517-.852 25.79 19.33 47.494 45.094 48.449 12.522.386 24.4-4 33.542-12.485 9.117-8.55 14.427-20.18 14.814-32.61.864-25.83-19.41-47.453-45.188-48.356-1.56-.058-3.027-.094-4.565 0zm12.298 23.386c11.451 0 20.684 6.223 20.684 13.882 0 7.622-9.233 13.883-20.684 13.883-11.49 0-20.777-6.274-20.777-13.883 0-7.66 9.288-13.882 20.777-13.882z" font-size="20.488" font-family="TrebuchetMS-Bold" fill="#73ba25" fill-opacity="1" fill-rule="evenodd" stroke="none"/></g></g></svg>