<?xml version="1.0" encoding="UTF-8" standalone="no"?>
<!-- Created with Inkscape (http://www.inkscape.org/) -->

<svg
   xmlns:dc="http://purl.org/dc/elements/1.1/"
   xmlns:cc="http://creativecommons.org/ns#"
   xmlns:rdf="http://www.w3.org/1999/02/22-rdf-syntax-ns#"
   xmlns:svg="http://www.w3.org/2000/svg"
   xmlns="http://www.w3.org/2000/svg"
   xmlns:sodipodi="http://sodipodi.sourceforge.net/DTD/sodipodi-0.dtd"
   xmlns:inkscape="http://www.inkscape.org/namespaces/inkscape"
   width="256"
   height="256"
   id="svg22006"
   version="1.1"
   inkscape:version="0.92.2 5c3e80d, 2017-08-06"
   sodipodi:docname="opensuse.svg">
  <defs
     id="defs22008">
    <inkscape:perspective
       sodipodi:type="inkscape:persp3d"
       inkscape:vp_x="0 : 0.5 : 1"
       inkscape:vp_y="0 : 1000 : 0"
       inkscape:vp_z="1 : 0.5 : 1"
       inkscape:persp3d-origin="0.5 : 0.33333333 : 1"
       id="perspective4785" />
    <inkscape:perspective
       id="perspective4798"
       inkscape:persp3d-origin="372.04724 : 350.78739 : 1"
       inkscape:vp_z="744.09448 : 526.18109 : 1"
       inkscape:vp_y="0 : 1000 : 0"
       inkscape:vp_x="0 : 526.18109 : 1"
       sodipodi:type="inkscape:persp3d" />
  </defs>
  <sodipodi:namedview
     id="base"
     pagecolor="#ffffff"
     bordercolor="#666666"
     borderopacity="1.0"
     inkscape:pageopacity="0.0"
     inkscape:pageshadow="2"
     inkscape:zoom="2"
     inkscape:cx="102.00671"
     inkscape:cy="116.44551"
     inkscape:document-units="px"
     inkscape:current-layer="layer1"
     showgrid="false"
     fit-margin-top="0"
     fit-margin-left="0"
     fit-margin-right="0"
     fit-margin-bottom="0"
     inkscape:window-width="1366"
     inkscape:window-height="713"
     inkscape:window-x="0"
     inkscape:window-y="27"
     inkscape:window-maximized="0" />
  <metadata
     id="metadata22011">
    <rdf:RDF>
      <cc:Work
         rdf:about="">
        <dc:format>image/svg+xml</dc:format>
        <dc:type
           rdf:resource="http://purl.org/dc/dcmitype/StillImage" />
        <dc:title />
      </cc:Work>
    </rdf:RDF>
  </metadata>
  <g
     inkscape:label="Layer 1"
     inkscape:groupmode="layer"
     id="layer1"
     transform="translate(-16,-788.36218)">
    <g
       id="layer1-5-3"
       inkscape:label="Layer 1"
       transform="matrix(0.46038751,0,0,0.46038751,6.0683554,779.74591)">
      <path
         id="path7590-6"
         d="m 302.85714,47.040669 c -139.69485,0 -252.959304,113.251571 -252.959304,252.959311 0,139.70779 113.264454,252.95936 252.959304,252.95936 139.69485,0 252.95931,-113.25157 252.95931,-252.95936 0,-139.70774 -113.26446,-252.959311 -252.95931,-252.959311 z"
         style="font-size:20.48839951px;font-family:TrebuchetMS-Bold;fill:#ffffff;fill-opacity:1;fill-rule:evenodd;stroke:none"
         inkscape:connector-curvature="0"
         sodipodi:nodetypes="sssss" />
    </g>
    <g
       id="layer1-5"
       inkscape:label="Layer 1"
       transform="matrix(0.46038751,0,0,0.46038751,6.0683554,779.74591)">
      <path
         id="path7590"
         d="m 302.85714,47.040669 c -139.69485,0 -252.959304,113.251571 -252.959304,252.959311 0,139.70779 113.264454,252.95936 252.959304,252.95936 139.69485,0 252.95931,-113.25157 252.95931,-252.95936 0,-139.70774 -113.26446,-252.959311 -252.95931,-252.959311 z m 1.21123,35.032275 c 120.3648,0 218.0202,97.575166 218.0202,217.927036 0,120.36486 -97.66828,217.92702 -218.0202,217.92702 -64.99236,0 -123.31178,-28.48437 -163.23566,-73.60512 16.41579,-12.74053 43.88029,-9.63228 77.70464,-5.77656 16.20942,1.84403 34.68755,3.9535 53.75973,4.37904 53.28336,0.30944 110.61427,-9.41522 145.99896,-24.87667 22.87626,-10.03257 37.52301,-16.63952 46.6787,-24.96985 3.30122,-2.70802 5.03481,-7.23198 6.80151,-11.92589 l 1.21117,-3.16781 c 1.483,-3.7912 3.61112,-11.9492 4.56539,-16.39811 0.42553,-1.94718 0.63439,-4.04116 -0.74535,-5.12439 l -4.9381,0.9317 c -15.52597,9.31041 -54.31645,27.04285 -90.65541,27.765 -45.03036,0.94134 -135.78842,-45.33188 -145.2536,-50.2192 l -0.9317,-1.11806 c -2.26957,-5.41606 -15.85171,-37.65967 -18.72741,-44.44259 65.32763,43.01879 119.48958,66.82954 160.99955,70.53043 46.15236,4.10077 82.15309,-21.09686 97.55003,-31.86447 3.00465,-2.05032 5.30111,-3.65814 6.24251,-4.00634 l 1.02487,-1.6771 c -2.5533,-16.2223 -26.76765,-94.7225 -45.00164,-113.57544 -5.05492,-5.17101 -9.07386,-10.20348 -17.23664,-15.00054 -65.99815,-38.46673 -222.70179,-61.6338 -230.03922,-62.7041 l -1.21123,0.3727 -0.46582,1.02488 c 0,0 -0.58773,32.53967 -0.65224,36.15033 -5.37736,-1.77952 -22.05118,-7.23849 -45.93328,-13.7893 31.16088,-38.557 78.91523,-72.766539 162.49024,-72.766596 z m 57.57966,115.345726 c 1.11207,-0.0166 2.23469,-0.037 3.35422,0 36.97079,1.32823 66.01752,32.4674 64.75386,69.41244 -0.6577,17.87291 -8.19292,34.38654 -21.24303,46.58551 -13.08874,12.26345 -30.10022,18.65549 -48.07623,18.07517 -36.90638,-1.37979 -65.95312,-32.51892 -64.75386,-69.41243 0.63189,-17.89867 8.20871,-34.51841 21.33616,-46.67864 12.25858,-11.497 27.94805,-17.7317 44.62888,-17.98205 z m -1.77023,19.75228 c -10.76732,0.65462 -20.92823,5.0266 -28.883,12.48494 -9.06537,8.51088 -14.41447,20.03404 -14.81419,32.51664 -0.85112,25.79065 19.32994,47.49472 45.09477,48.44899 12.52131,0.38684 24.39876,-3.99984 33.54158,-12.48495 9.117,-8.54961 14.42733,-20.17877 14.81417,-32.60987 0.864,-25.82929 -19.41023,-47.45306 -45.18794,-48.35575 -1.56033,-0.058 -3.02716,-0.0935 -4.56539,0 z m 12.2986,23.3859 c 11.45101,0 20.68398,6.22268 20.68392,13.88254 0,7.62111 -9.23291,13.88248 -20.68392,13.88248 -11.48976,0 -20.77716,-6.27431 -20.77716,-13.88248 0,-7.65981 9.2874,-13.88247 20.77716,-13.88254 z"
         style="font-size:20.48839951px;fill:#73ba25;fill-opacity:1;fill-rule:evenodd;stroke:none;font-family:TrebuchetMS-Bold"
         inkscape:connector-curvature="0" />
    </g>
  </g>
</svg>