<svg xmlns="http://www.w3.org/2000/svg" width="64" height="64"><g transform="translate(1.99 1.871) scale(.06352)"><circle cx="473" cy="474" r="473" fill="#48b9c7"/><rect x="223" y="726" width="500" height="76.96" rx="37" ry="37" fill="#fff"/></g><path d="M36.037 24.548c-1.525 3.24-4.066 5.843-7.623 7.114l3.05 7.94c.571 1.46 1.08 2.985.634 4.383s-2.477 1.842-3.938.317c-2.795-2.985-12.196-21.787-12.894-23.184s-1.461-2.541-1.461-3.939c.063-2.096 3.303-4.256 4.89-5.335s4.701-2.541 7.433-2.605 3.874.572 5.462 1.588c2.414 1.588 4.13 4.066 4.764 6.924s.445 5.082-.317 6.67m-7.178-3.43c-.572-1.97-1.779-3.875-3.367-5.146-.317-.254-.698-.571-1.143-.698-2.922-.953-1.651 3.938-1.207 5.208s1.652 3.939 2.986 5.272c.317.318.635.572 1.016.636s1.143-.318 1.46-.826.382-.89.382-1.398a8.13 8.13 0 0 0-.127-3.048z" fill="#fff"/><g fill="#fff"><path d="M41.69 44.048c-.127.572-.445 1.08-.953 1.398s-1.715.317-2.414-.254-.825-1.525-.635-2.287.826-1.588 1.715-1.842c1.842-.572 2.668 1.46 2.287 2.985zM40.547 38.268c-1.144-.445-.763-6.543.317-13.974.318-2.033.826-3.05 1.398-3.558s2.286-.762 3.303-.571a5.717 5.717 0 0 1 3.112 1.524c.762.699.826 1.461.572 2.414s-1.143 2.985-1.842 4.446l-1.779 3.367c-3.43 6.098-4.129 6.733-5.081 6.352z"/></g></svg>