<?xml version="1.0" encoding="UTF-8" standalone="no"?>
<!-- Created with Inkscape (http://www.inkscape.org/) -->

<svg
   xmlns:dc="http://purl.org/dc/elements/1.1/"
   xmlns:cc="http://creativecommons.org/ns#"
   xmlns:rdf="http://www.w3.org/1999/02/22-rdf-syntax-ns#"
   xmlns:svg="http://www.w3.org/2000/svg"
   xmlns="http://www.w3.org/2000/svg"
   xmlns:sodipodi="http://sodipodi.sourceforge.net/DTD/sodipodi-0.dtd"
   xmlns:inkscape="http://www.inkscape.org/namespaces/inkscape"
   width="64"
   height="64"
   id="svg22006"
   version="1.1"
   inkscape:version="0.92.4 5da689c313, 2019-01-14"
   sodipodi:docname="redhat.svg">
  <defs
     id="defs22008">
    <style
       id="style826">.cls-1{fill:#e00;}</style>
  </defs>
  <sodipodi:namedview
     id="base"
     pagecolor="#ffffff"
     bordercolor="#666666"
     borderopacity="1.0"
     inkscape:pageopacity="0.0"
     inkscape:pageshadow="2"
     inkscape:zoom="1"
     inkscape:cx="49.496804"
     inkscape:cy="16.18248"
     inkscape:document-units="px"
     inkscape:current-layer="layer1"
     showgrid="true"
     fit-margin-top="0"
     fit-margin-left="0"
     fit-margin-right="0"
     fit-margin-bottom="0"
     inkscape:window-width="1381"
     inkscape:window-height="1187"
     inkscape:window-x="2560"
     inkscape:window-y="59"
     inkscape:window-maximized="0">
    <inkscape:grid
       type="xygrid"
       id="grid2173" />
  </sodipodi:namedview>
  <metadata
     id="metadata22011">
    <rdf:RDF>
      <cc:Work
         rdf:about="">
        <dc:format>image/svg+xml</dc:format>
        <dc:type
           rdf:resource="http://purl.org/dc/dcmitype/StillImage" />
        <dc:title />
      </cc:Work>
    </rdf:RDF>
  </metadata>
  <g
     inkscape:groupmode="layer"
     id="layer2"
     inkscape:label="grid"
     sodipodi:insensitive="true"
     style="display:none">
    <circle
       cx="32.000027"
       cy="32.017231"
       r="29.752066"
       id="circle2892"
       style="display:inline;opacity:0.1;vector-effect:none;fill:none;fill-opacity:1;stroke:#000000;stroke-width:0.495;stroke-linecap:butt;stroke-linejoin:miter;stroke-miterlimit:4;stroke-dasharray:0.49500001, 0.49500001;stroke-dashoffset:0;stroke-opacity:1;marker:none;marker-start:none;marker-mid:none;marker-end:none;paint-order:normal;enable-background:new" />
    <rect
       ry="3.9646444"
       rx="4.350502"
       y="4.2647157"
       x="10.247517"
       height="55.505024"
       width="43.504993"
       id="rect2894"
       style="display:inline;opacity:0.1;vector-effect:none;fill:none;fill-opacity:1;stroke:#000000;stroke-width:0.495;stroke-linecap:butt;stroke-linejoin:miter;stroke-miterlimit:4;stroke-dasharray:0.49500001, 0.49500001;stroke-dashoffset:0;stroke-opacity:1;marker:none;marker-start:none;marker-mid:none;marker-end:none;paint-order:normal;enable-background:new" />
    <rect
       ry="3.9619048"
       rx="3.9619048"
       y="6.2648535"
       x="6.2476459"
       height="51.504761"
       width="51.504761"
       id="rect2896"
       style="display:inline;opacity:0.1;vector-effect:none;fill:none;fill-opacity:1;stroke:#000000;stroke-width:0.495;stroke-linecap:butt;stroke-linejoin:miter;stroke-miterlimit:4;stroke-dasharray:0.49500001, 0.49500001;stroke-dashoffset:0;stroke-opacity:1;marker:none;marker-start:none;marker-mid:none;marker-end:none;paint-order:normal;enable-background:new" />
    <rect
       ry="4.3505025"
       rx="3.9646444"
       y="14.264717"
       x="4.2475162"
       height="43.505024"
       width="55.50502"
       id="rect2898"
       style="display:inline;opacity:0.1;vector-effect:none;fill:none;fill-opacity:1;stroke:#000000;stroke-width:0.495;stroke-linecap:butt;stroke-linejoin:miter;stroke-miterlimit:4;stroke-dasharray:0.49500001, 0.49500001;stroke-dashoffset:0;stroke-opacity:1;marker:none;marker-start:none;marker-mid:none;marker-end:none;paint-order:normal;enable-background:new" />
    <path
       inkscape:connector-curvature="0"
       id="path2900"
       d="M 2.6203015e-5,58.517227 H 64.000028"
       style="display:inline;fill:none;stroke:#62a0ea;stroke-width:1;stroke-linecap:butt;stroke-linejoin:miter;stroke-miterlimit:4;stroke-dasharray:none;stroke-opacity:1;enable-background:new" />
  </g>
  <g
     inkscape:label="Layer 1"
     inkscape:groupmode="layer"
     id="layer1"
     transform="translate(-16,-980.36218)">
    <g
       id="g844"
       transform="matrix(0.31418118,0,0,0.31418118,17.969961,989.41423)"
       style="stroke-width:3.18287683">
      <path
         id="path832"
         d="m 157.77,62.61 a 14,14 0 0 1 0.31,3.42 c 0,14.88 -18.1,17.46 -30.61,17.46 C 78.83,83.49 42.53,53.26 42.53,44 a 6.43,6.43 0 0 1 0.22,-1.94 l -3.66,9.06 a 18.45,18.45 0 0 0 -1.51,7.33 c 0,18.11 41,45.48 87.74,45.48 20.69,0 36.43,-7.76 36.43,-21.77 0,-1.08 0,-1.94 -1.73,-10.13 z"
         inkscape:connector-curvature="0"
         style="stroke-width:3.18287683" />
      <path
         id="path834"
         d="m 127.47,83.49 c 12.51,0 30.61,-2.58 30.61,-17.46 a 14,14 0 0 0 -0.31,-3.42 L 150.32,30.25 C 148.6,23.13 147.09,19.9 134.59,13.65 124.89,8.69 103.76,0.5 97.51,0.5 91.69,0.5 90,8 83.06,8 76.38,8 71.42,2.4 65.17,2.4 c -6,0 -9.91,4.09 -12.93,12.5 0,0 -8.41,23.72 -9.49,27.16 A 6.43,6.43 0 0 0 42.53,44 c 0,9.22 36.3,39.45 84.94,39.45 M 160,72.07 c 1.73,8.19 1.73,9.05 1.73,10.13 0,14 -15.74,21.77 -36.43,21.77 C 78.54,104 37.58,76.6 37.58,58.49 a 18.45,18.45 0 0 1 1.51,-7.33 C 22.27,52 0.5,55 0.5,74.22 c 0,31.48 74.59,70.28 133.65,70.28 45.28,0 56.7,-20.48 56.7,-36.65 0,-12.72 -11,-27.16 -30.83,-35.78"
         class="cls-1"
         inkscape:connector-curvature="0"
         style="fill:#ee0000;stroke-width:3.18287683" />
    </g>
  </g>
</svg>
