<svg xmlns="http://www.w3.org/2000/svg" width="64" height="64"><g stroke-width="3.183"><path d="M51.538 28.723a4.399 4.399 0 0 1 .098 1.074c0 4.675-5.687 5.486-9.617 5.486-15.282 0-26.687-9.498-26.687-12.407a2.02 2.02 0 0 1 .07-.61l-1.15 2.847a5.797 5.797 0 0 0-.475 2.303c0 5.69 12.881 14.289 27.566 14.289 6.5 0 11.446-2.438 11.446-6.84 0-.34 0-.61-.544-3.182z"/><path d="M42.019 35.283c3.93 0 9.617-.81 9.617-5.486a4.399 4.399 0 0 0-.098-1.074l-2.34-10.167c-.54-2.237-1.015-3.252-4.942-5.215-3.048-1.559-9.687-4.132-11.65-4.132-1.829 0-2.36 2.356-4.54 2.356-2.099 0-3.657-1.759-5.62-1.759-1.886 0-3.114 1.285-4.063 3.927 0 0-2.642 7.453-2.982 8.534a2.02 2.02 0 0 0-.069.609c0 2.897 11.405 12.394 26.687 12.394m10.22-3.575c.543 2.573.543 2.843.543 3.183 0 4.398-4.945 6.84-11.445 6.84-14.691.009-27.56-8.6-27.56-14.29a5.797 5.797 0 0 1 .474-2.302c-5.284.263-12.124 1.206-12.124 7.245 0 9.89 23.435 22.08 41.99 22.08 14.226 0 17.814-6.434 17.814-11.515 0-3.996-3.456-8.533-9.686-11.24" fill="#e00"/></g></svg>