<?xml version="1.0" encoding="UTF-8" standalone="no"?>
<!-- Created with Inkscape (http://www.inkscape.org/) -->

<svg
   xmlns:dc="http://purl.org/dc/elements/1.1/"
   xmlns:cc="http://creativecommons.org/ns#"
   xmlns:rdf="http://www.w3.org/1999/02/22-rdf-syntax-ns#"
   xmlns:svg="http://www.w3.org/2000/svg"
   xmlns="http://www.w3.org/2000/svg"
   xmlns:sodipodi="http://sodipodi.sourceforge.net/DTD/sodipodi-0.dtd"
   xmlns:inkscape="http://www.inkscape.org/namespaces/inkscape"
   width="64"
   height="64"
   viewBox="0 0 64 64.000003"
   version="1.1"
   id="svg2199"
   inkscape:version="0.92.2 2405546, 2018-03-11"
   sodipodi:docname="silverblue.svg"
   inkscape:export-filename="/home/jimmac/gfx/logos/silverblue/silverblue-logo.png"
   inkscape:export-xdpi="96"
   inkscape:export-ydpi="96">
  <defs
     id="defs2193">
    <clipPath
       clipPathUnits="userSpaceOnUse"
       id="clipPath2892">
      <path
         sodipodi:nodetypes="ccssccc"
         inkscape:connector-curvature="0"
         id="path2894"
         d="m 144.95689,70.1852 c 56.90526,1e-6 170.71577,2e-6 170.71577,2e-6 V 238.88067 c 0,29.10047 -23.42746,52.52793 -52.52793,52.52793 H 92.934034 c 0,0 -0.505079,-108.68444 -0.505079,-168.69547 0,-29.100473 23.427455,-52.52793 52.527935,-52.52793 z"
         style="opacity:1;vector-effect:none;fill:#729fcf;fill-opacity:1;stroke:none;stroke-width:10;stroke-linecap:round;stroke-linejoin:miter;stroke-miterlimit:4;stroke-dasharray:none;stroke-dashoffset:0;stroke-opacity:0.95686275;marker:none;paint-order:normal" />
    </clipPath>
    <clipPath
       clipPathUnits="userSpaceOnUse"
       id="clipPath2892-7">
      <path
         sodipodi:nodetypes="ccssccc"
         inkscape:connector-curvature="0"
         id="path2894-8"
         d="m 144.95689,70.1852 c 56.90526,1e-6 170.71577,2e-6 170.71577,2e-6 V 238.88067 c 0,29.10047 -23.42746,52.52793 -52.52793,52.52793 H 92.934034 c 0,0 -0.505079,-108.68444 -0.505079,-168.69547 0,-29.100473 23.427455,-52.52793 52.527935,-52.52793 z"
         style="opacity:1;vector-effect:none;fill:#729fcf;fill-opacity:1;stroke:none;stroke-width:10;stroke-linecap:round;stroke-linejoin:miter;stroke-miterlimit:4;stroke-dasharray:none;stroke-dashoffset:0;stroke-opacity:0.95686275;marker:none;paint-order:normal" />
    </clipPath>
  </defs>
  <sodipodi:namedview
     id="base"
     pagecolor="#ffffff"
     bordercolor="#666666"
     borderopacity="1.0"
     inkscape:pageopacity="0.0"
     inkscape:pageshadow="2"
     inkscape:zoom="1"
     inkscape:cx="46.876726"
     inkscape:cy="28.694088"
     inkscape:document-units="px"
     inkscape:current-layer="layer2"
     showgrid="false"
     units="px"
     inkscape:window-width="3440"
     inkscape:window-height="1376"
     inkscape:window-x="0"
     inkscape:window-y="61"
     inkscape:window-maximized="1"
     inkscape:pagecheckerboard="false"
     borderlayer="true"
     inkscape:showpageshadow="false"
     showguides="true"
     inkscape:guide-bbox="true"
     inkscape:snap-bbox="true"
     inkscape:bbox-nodes="true"
     inkscape:snap-bbox-edge-midpoints="true">
    <sodipodi:guide
       position="93.944188,107.07617"
       orientation="1,0"
       id="guide3043"
       inkscape:locked="false" />
    <sodipodi:guide
       position="314.66252,173.24117"
       orientation="1,0"
       id="guide3045"
       inkscape:locked="false" />
    <inkscape:grid
       type="xygrid"
       id="grid1546" />
  </sodipodi:namedview>
  <metadata
     id="metadata2196">
    <rdf:RDF>
      <cc:Work
         rdf:about="">
        <dc:format>image/svg+xml</dc:format>
        <dc:type
           rdf:resource="http://purl.org/dc/dcmitype/StillImage" />
        <dc:title></dc:title>
      </cc:Work>
    </rdf:RDF>
  </metadata>
  <g
     inkscape:groupmode="layer"
     id="layer1"
     inkscape:label="grid"
     sodipodi:insensitive="true"
     style="display:none">
    <circle
       cx="32.000027"
       cy="32.017231"
       r="29.752066"
       id="circle2892"
       style="display:inline;opacity:0.1;vector-effect:none;fill:none;fill-opacity:1;stroke:#000000;stroke-width:0.495;stroke-linecap:butt;stroke-linejoin:miter;stroke-miterlimit:4;stroke-dasharray:0.49500001, 0.49500001;stroke-dashoffset:0;stroke-opacity:1;marker:none;marker-start:none;marker-mid:none;marker-end:none;paint-order:normal;enable-background:new" />
    <rect
       ry="3.9646444"
       rx="4.350502"
       y="4.2647157"
       x="10.247517"
       height="55.505024"
       width="43.504993"
       id="rect2894"
       style="display:inline;opacity:0.1;vector-effect:none;fill:none;fill-opacity:1;stroke:#000000;stroke-width:0.495;stroke-linecap:butt;stroke-linejoin:miter;stroke-miterlimit:4;stroke-dasharray:0.49500001, 0.49500001;stroke-dashoffset:0;stroke-opacity:1;marker:none;marker-start:none;marker-mid:none;marker-end:none;paint-order:normal;enable-background:new" />
    <rect
       ry="3.9619048"
       rx="3.9619048"
       y="6.2648535"
       x="6.2476459"
       height="51.504761"
       width="51.504761"
       id="rect2896"
       style="display:inline;opacity:0.1;vector-effect:none;fill:none;fill-opacity:1;stroke:#000000;stroke-width:0.495;stroke-linecap:butt;stroke-linejoin:miter;stroke-miterlimit:4;stroke-dasharray:0.49500001, 0.49500001;stroke-dashoffset:0;stroke-opacity:1;marker:none;marker-start:none;marker-mid:none;marker-end:none;paint-order:normal;enable-background:new" />
    <rect
       ry="4.3505025"
       rx="3.9646444"
       y="14.264716"
       x="4.2475162"
       height="43.505024"
       width="55.50502"
       id="rect2898"
       style="display:inline;opacity:0.1;vector-effect:none;fill:none;fill-opacity:1;stroke:#000000;stroke-width:0.495;stroke-linecap:butt;stroke-linejoin:miter;stroke-miterlimit:4;stroke-dasharray:0.49500001, 0.49500001;stroke-dashoffset:0;stroke-opacity:1;marker:none;marker-start:none;marker-mid:none;marker-end:none;paint-order:normal;enable-background:new" />
    <path
       inkscape:connector-curvature="0"
       id="path2900"
       d="M 2.6203015e-5,58.517226 H 64.000028"
       style="display:inline;fill:none;stroke:#62a0ea;stroke-width:1;stroke-linecap:butt;stroke-linejoin:miter;stroke-miterlimit:4;stroke-dasharray:none;stroke-opacity:1;enable-background:new" />
  </g>
  <g
     inkscape:groupmode="layer"
     id="layer2"
     inkscape:label="vectors"
     transform="translate(0,-336)"
     style="display:inline">
    <rect
       style="opacity:1;vector-effect:none;fill:#ffffff;fill-opacity:1;stroke:none;stroke-width:1.16997361;stroke-linecap:butt;stroke-linejoin:miter;stroke-miterlimit:4;stroke-dasharray:none;stroke-dashoffset:0;stroke-opacity:1;marker:none;paint-order:normal"
       id="rect5099"
       width="52.119583"
       height="51.764942"
       x="6.1748757"
       y="342.10211"
       rx="12.161258"
       ry="12.161258" />
    <path
       style="opacity:1;vector-effect:none;fill:#8d9fb4;fill-opacity:1;stroke:none;stroke-width:2.33994722;stroke-linecap:round;stroke-linejoin:miter;stroke-miterlimit:4;stroke-dasharray:none;stroke-dashoffset:0;stroke-opacity:0.95686275;marker:none;paint-order:normal"
       d="m 18.348088,342.1021 c -6.809362,0 -12.2911229,5.48177 -12.2911229,12.29111 C 6.0569651,368.43549 6,394 6,394 l 39.753342,0.0833 c 6.809339,0.0143 12.280399,-5.4818 12.291122,-12.29112 v -39.6901 z m -0.387098,7.98373 c 1.93403,0 3.527288,1.5928 3.527288,3.52682 0,1.50457 -0.965965,2.79875 -2.304756,3.30105 v 22.53763 l 11.969379,-12.14585 v -10.34287 c -1.407629,-0.464 -2.436837,-1.79582 -2.436837,-3.34996 4e-6,-1.93402 1.592798,-3.52682 3.526833,-3.52682 1.934028,0 3.527287,1.5928 3.527287,3.52682 0,1.49432 -0.952763,2.78141 -2.277337,3.29103 v 8.06957 l 9.676811,-9.85382 c -0.219857,-0.45848 -0.346876,-0.96842 -0.346876,-1.50678 0,-1.93402 1.592798,-3.52682 3.526831,-3.52682 1.934033,0 3.527286,1.5928 3.527286,3.52682 0,1.93402 -1.593253,3.52682 -3.527286,3.52682 -0.548278,0 -1.067015,-0.13172 -1.531933,-0.3592 l -9.616488,9.79395 h 7.962072 c 0.509735,-1.32446 1.797144,-2.27688 3.291462,-2.27688 1.934035,0 3.526831,1.59282 3.526831,3.52686 0,1.93402 -1.592796,3.52678 -3.526831,3.52678 -1.554147,0 -2.886292,-1.02918 -3.350422,-2.43681 H 32.853476 L 20.84479,381.09932 h 22.269571 c 0.472438,-1.39333 1.796468,-2.40942 3.340365,-2.40942 1.934035,0 3.526831,1.59282 3.526831,3.52685 0,1.93403 -1.592796,3.52729 -3.526831,3.52729 -1.50457,0 -2.799101,-0.96599 -3.301516,-2.30473 H 16.843572 v -26.48674 c -1.393347,-0.47233 -2.409412,-1.79605 -2.409412,-3.33992 0,-1.93402 1.592794,-3.52682 3.52683,-3.52682 z m 0,2.33991 c -0.669474,0 -1.186883,0.51752 -1.186883,1.18691 0,0.66939 0.517409,1.18691 1.186883,1.18691 0.669475,0 1.187338,-0.51752 1.187338,-1.18691 0,-0.66939 -0.517863,-1.18691 -1.187338,-1.18691 z m 14.281907,0 c -0.669477,0 -1.186885,0.51752 -1.186885,1.18691 3e-6,0.66939 0.517408,1.18691 1.186885,1.18691 0.669476,0 1.187338,-0.51752 1.187338,-1.18691 0,-0.66939 -0.517862,-1.18691 -1.187338,-1.18691 z m 14.106716,0 c -0.669472,0 -1.18688,0.51752 -1.18688,1.18691 0,0.66939 0.517408,1.18691 1.18688,1.18691 0.669477,0 1.187338,-0.51752 1.187338,-1.18691 0,-0.66939 -0.517861,-1.18691 -1.187338,-1.18691 z m 0.105113,14.21156 c -0.669476,0 -1.187338,0.51748 -1.187338,1.1869 0,0.66936 0.517862,1.18687 1.187338,1.18687 0.669476,0 1.186885,-0.51751 1.186885,-1.18687 0,-0.66942 -0.517409,-1.1869 -1.186885,-1.1869 z m 0,14.39258 c -0.669476,0 -1.187338,0.51749 -1.187338,1.18687 0,0.66937 0.517862,1.18732 1.187338,1.18732 0.669476,0 1.186885,-0.51795 1.186885,-1.18732 0,-0.66938 -0.517409,-1.18687 -1.186885,-1.18687 z"
       id="path3225"
       inkscape:connector-curvature="0"
       sodipodi:nodetypes="sscsscssscccccsscccsssscccsssccccssscccsssssssscssssssssssssssssss" />
    <path
       style="opacity:1;fill:#436795;fill-opacity:1;stroke:none;stroke-width:0.23399475px;stroke-linecap:butt;stroke-linejoin:miter;stroke-opacity:1"
       d="m 58.095385,342.1021 -9.168756,9.10664 c 0.593176,0.63217 0.961111,1.47778 0.961111,2.40391 0,1.93402 -1.593252,3.52682 -3.527287,3.52682 -0.548276,0 -1.067018,-0.13172 -1.531931,-0.3592 l -9.82641,9.79395 h 8.171994 c 0.509735,-1.32446 1.797145,-2.27688 3.291462,-2.27688 1.934034,0 3.526831,1.59282 3.526831,3.52686 0,1.93402 -1.592797,3.52678 -3.526831,3.52678 -1.554151,0 -2.886291,-1.02918 -3.350421,-2.43681 H 32.654395 L 20.64571,381.09933 h 22.479491 c 0.472437,-1.39333 1.79647,-2.40942 3.340367,-2.40942 1.934034,0 3.526831,1.59282 3.526831,3.52685 0,1.93403 -1.592797,3.52729 -3.526831,3.52729 -1.50457,0 -2.799103,-0.96599 -3.301516,-2.30474 H 16.692935 L 6,394 l 40.007386,0.0521 c 6.809349,0.009 12.087999,-5.45054 12.087999,-12.25987 z m -10.822257,10.7487 -1.68047,1.66904 c 0.205518,0.17284 0.469795,0.27972 0.767795,0.27972 0.669473,0 1.187341,-0.51752 1.187341,-1.18691 0,-0.29503 -0.104833,-0.55713 -0.274666,-0.76185 z m -0.80756,13.7865 c -0.669475,0 -1.187341,0.51748 -1.187341,1.1869 0,0.66936 0.517866,1.18687 1.187341,1.18687 0.669477,0 1.186886,-0.51751 1.186886,-1.18687 0,-0.66942 -0.517409,-1.1869 -1.186886,-1.1869 z m 0,14.39259 c -0.669475,0 -1.187341,0.51748 -1.187341,1.18687 0,0.66937 0.517866,1.18732 1.187341,1.18732 0.669477,0 1.186886,-0.51795 1.186886,-1.18732 0,-0.66939 -0.517409,-1.18687 -1.186886,-1.18687 z"
       id="path3227"
       inkscape:connector-curvature="0"
       sodipodi:nodetypes="ccsscccsssccccssscccsscccsscssssssssss" />
  </g>
</svg>
