<svg xmlns="http://www.w3.org/2000/svg" width="64" height="64"><g transform="translate(0 -336)"><rect style="marker:none" width="52.12" height="51.765" x="6.175" y="342.102" rx="12.161" ry="12.161" fill="#fff"/><path style="marker:none" d="M18.348 342.102a12.264 12.264 0 0 0-12.291 12.291C6.057 368.435 6 394 6 394l39.753.083c6.81.015 12.28-5.482 12.291-12.29v-39.69zm-.387 7.984a3.545 3.545 0 0 1 3.527 3.527c0 1.504-.966 2.798-2.304 3.3v22.538l11.969-12.146v-10.342c-1.408-.464-2.437-1.796-2.437-3.35a3.545 3.545 0 0 1 3.527-3.527 3.545 3.545 0 0 1 3.527 3.527c0 1.494-.953 2.781-2.277 3.29v8.07l9.677-9.854a3.475 3.475 0 0 1-.347-1.506 3.545 3.545 0 0 1 3.527-3.527 3.545 3.545 0 0 1 3.527 3.527 3.545 3.545 0 0 1-3.527 3.526 3.476 3.476 0 0 1-1.532-.359l-9.617 9.794h7.962c.51-1.324 1.797-2.277 3.292-2.277a3.545 3.545 0 0 1 3.527 3.527 3.545 3.545 0 0 1-3.527 3.527c-1.554 0-2.887-1.03-3.35-2.437H32.852L20.845 381.1h22.27c.472-1.393 1.796-2.41 3.34-2.41a3.545 3.545 0 0 1 3.527 3.528 3.545 3.545 0 0 1-3.527 3.527c-1.505 0-2.8-.966-3.302-2.305h-26.31v-26.486c-1.393-.473-2.409-1.796-2.409-3.34a3.545 3.545 0 0 1 3.527-3.527zm0 2.34a1.17 1.17 0 0 0-1.187 1.187 1.17 1.17 0 0 0 1.187 1.187 1.17 1.17 0 0 0 1.187-1.187 1.17 1.17 0 0 0-1.187-1.187zm14.282 0a1.17 1.17 0 0 0-1.187 1.187 1.17 1.17 0 0 0 1.187 1.187 1.17 1.17 0 0 0 1.187-1.187 1.17 1.17 0 0 0-1.187-1.187zm14.107 0a1.17 1.17 0 0 0-1.187 1.187 1.17 1.17 0 0 0 1.187 1.187 1.17 1.17 0 0 0 1.187-1.187 1.17 1.17 0 0 0-1.187-1.187zm.105 14.211a1.17 1.17 0 0 0-1.188 1.187c0 .67.518 1.187 1.188 1.187a1.17 1.17 0 0 0 1.187-1.187 1.17 1.17 0 0 0-1.187-1.187zm0 14.393a1.17 1.17 0 0 0-1.188 1.187c0 .67.518 1.187 1.188 1.187a1.17 1.17 0 0 0 1.187-1.187 1.17 1.17 0 0 0-1.187-1.187z" fill="#8d9fb4"/><path d="M58.095 342.102l-9.168 9.107c.593.632.96 1.478.96 2.404a3.545 3.545 0 0 1-3.527 3.526 3.476 3.476 0 0 1-1.531-.359l-9.827 9.794h8.172c.51-1.324 1.797-2.277 3.292-2.277a3.545 3.545 0 0 1 3.526 3.527 3.545 3.545 0 0 1-3.526 3.527c-1.555 0-2.887-1.03-3.35-2.437H32.653L20.646 381.1h22.48c.472-1.393 1.796-2.41 3.34-2.41a3.545 3.545 0 0 1 3.526 3.528 3.545 3.545 0 0 1-3.526 3.527c-1.505 0-2.8-.966-3.302-2.305H16.693L6 394l40.007.052c6.81.01 12.088-5.45 12.088-12.26zm-10.822 10.749l-1.68 1.669c.205.173.47.28.767.28a1.17 1.17 0 0 0 1.188-1.187c0-.295-.105-.557-.275-.762zm-.807 13.786a1.17 1.17 0 0 0-1.188 1.187c0 .67.518 1.187 1.188 1.187a1.17 1.17 0 0 0 1.186-1.187 1.17 1.17 0 0 0-1.186-1.187zm0 14.393a1.17 1.17 0 0 0-1.188 1.187c0 .67.518 1.187 1.188 1.187a1.17 1.17 0 0 0 1.186-1.187 1.17 1.17 0 0 0-1.186-1.187z" fill="#436795"/></g></svg>