<?xml version="1.0" encoding="UTF-8" standalone="no"?>
<!-- Created with Inkscape (http://www.inkscape.org/) -->

<svg
   xmlns:dc="http://purl.org/dc/elements/1.1/"
   xmlns:cc="http://creativecommons.org/ns#"
   xmlns:rdf="http://www.w3.org/1999/02/22-rdf-syntax-ns#"
   xmlns:svg="http://www.w3.org/2000/svg"
   xmlns="http://www.w3.org/2000/svg"
   xmlns:sodipodi="http://sodipodi.sourceforge.net/DTD/sodipodi-0.dtd"
   xmlns:inkscape="http://www.inkscape.org/namespaces/inkscape"
   width="64"
   height="64"
   viewBox="0 0 64 64.000003"
   version="1.1"
   id="svg2199"
   inkscape:version="0.92.2 2405546, 2018-03-11"
   sodipodi:docname="favicon.svg"
   inkscape:export-filename="/home/jimmac/gfx/logos/silverblue/silverblue-logo.png"
   inkscape:export-xdpi="96"
   inkscape:export-ydpi="96">
  <defs
     id="defs2193">
    <clipPath
       clipPathUnits="userSpaceOnUse"
       id="clipPath2892">
      <path
         sodipodi:nodetypes="ccssccc"
         inkscape:connector-curvature="0"
         id="path2894"
         d="m 144.95689,70.1852 c 56.90526,1e-6 170.71577,2e-6 170.71577,2e-6 V 238.88067 c 0,29.10047 -23.42746,52.52793 -52.52793,52.52793 H 92.934034 c 0,0 -0.505079,-108.68444 -0.505079,-168.69547 0,-29.100473 23.427455,-52.52793 52.527935,-52.52793 z"
         style="opacity:1;vector-effect:none;fill:#729fcf;fill-opacity:1;stroke:none;stroke-width:10;stroke-linecap:round;stroke-linejoin:miter;stroke-miterlimit:4;stroke-dasharray:none;stroke-dashoffset:0;stroke-opacity:0.95686275;marker:none;paint-order:normal" />
    </clipPath>
    <clipPath
       clipPathUnits="userSpaceOnUse"
       id="clipPath2892-7">
      <path
         sodipodi:nodetypes="ccssccc"
         inkscape:connector-curvature="0"
         id="path2894-8"
         d="m 144.95689,70.1852 c 56.90526,1e-6 170.71577,2e-6 170.71577,2e-6 V 238.88067 c 0,29.10047 -23.42746,52.52793 -52.52793,52.52793 H 92.934034 c 0,0 -0.505079,-108.68444 -0.505079,-168.69547 0,-29.100473 23.427455,-52.52793 52.527935,-52.52793 z"
         style="opacity:1;vector-effect:none;fill:#729fcf;fill-opacity:1;stroke:none;stroke-width:10;stroke-linecap:round;stroke-linejoin:miter;stroke-miterlimit:4;stroke-dasharray:none;stroke-dashoffset:0;stroke-opacity:0.95686275;marker:none;paint-order:normal" />
    </clipPath>
  </defs>
  <sodipodi:namedview
     id="base"
     pagecolor="#ffffff"
     bordercolor="#666666"
     borderopacity="1.0"
     inkscape:pageopacity="0.0"
     inkscape:pageshadow="2"
     inkscape:zoom="1"
     inkscape:cx="-11.991735"
     inkscape:cy="34.086638"
     inkscape:document-units="px"
     inkscape:current-layer="layer2"
     showgrid="false"
     units="px"
     inkscape:window-width="3440"
     inkscape:window-height="1376"
     inkscape:window-x="0"
     inkscape:window-y="61"
     inkscape:window-maximized="1"
     inkscape:pagecheckerboard="false"
     borderlayer="true"
     inkscape:showpageshadow="false"
     showguides="true"
     inkscape:guide-bbox="true"
     inkscape:snap-bbox="true"
     inkscape:bbox-nodes="true"
     inkscape:snap-bbox-edge-midpoints="true">
    <sodipodi:guide
       position="93.944188,107.07617"
       orientation="1,0"
       id="guide3043"
       inkscape:locked="false" />
    <sodipodi:guide
       position="314.66252,173.24117"
       orientation="1,0"
       id="guide3045"
       inkscape:locked="false" />
  </sodipodi:namedview>
  <metadata
     id="metadata2196">
    <rdf:RDF>
      <cc:Work
         rdf:about="">
        <dc:format>image/svg+xml</dc:format>
        <dc:type
           rdf:resource="http://purl.org/dc/dcmitype/StillImage" />
        <dc:title></dc:title>
      </cc:Work>
    </rdf:RDF>
  </metadata>
  <g
     inkscape:groupmode="layer"
     id="layer2"
     inkscape:label="vectors"
     transform="translate(0,-336)">
    <rect
       style="opacity:1;vector-effect:none;fill:#ffffff;fill-opacity:1;stroke:none;stroke-width:1.4346478;stroke-linecap:butt;stroke-linejoin:miter;stroke-miterlimit:4;stroke-dasharray:none;stroke-dashoffset:0;stroke-opacity:1;marker:none;paint-order:normal"
       id="rect5099"
       width="63.910198"
       height="63.475319"
       x="0.2074893"
       y="336.22244"
       rx="14.912402"
       ry="14.912402" />
    <path
       style="opacity:1;vector-effect:none;fill:#8d9fb4;fill-opacity:1;stroke:none;stroke-width:2.8692956;stroke-linecap:round;stroke-linejoin:miter;stroke-miterlimit:4;stroke-dasharray:none;stroke-dashoffset:0;stroke-opacity:0.95686275;marker:none;paint-order:normal"
       d="m 15.13455,336.22247 c -8.3497872,0 -15.07164554,6.72185 -15.07164554,15.07164 0,17.21894 0.1445838,48.66884 0.1445838,48.66884 H 49.046039 c 8.349784,0 15.071649,-6.72187 15.071649,-15.07165 v -48.66883 z m -0.474667,9.78979 c 2.371555,0 4.325239,1.95312 4.325239,4.32468 0,1.84493 -1.184489,3.43191 -2.826144,4.04783 v 27.63612 L 30.8361,367.12736 v -12.68262 c -1.726065,-0.56899 -2.988106,-2.20207 -2.988106,-4.1078 6e-6,-2.37156 1.953128,-4.32468 4.324681,-4.32468 2.371553,0 4.32524,1.95312 4.32524,4.32468 0,1.83237 -1.168298,3.41061 -2.792519,4.03551 v 9.89513 l 12.123332,-12.08297 c -0.269598,-0.56223 -0.425349,-1.1875 -0.425349,-1.84767 0,-2.37156 1.953124,-4.32468 4.324676,-4.32468 2.371557,0 4.32524,1.95312 4.32524,4.32468 0,2.37155 -1.953683,4.32468 -4.32524,4.32468 -0.67231,0 -1.308398,-0.16152 -1.87849,-0.44049 L 35.800206,366.2307 h 10.020679 c 0.625047,-1.62406 2.203698,-2.79196 4.036065,-2.79196 2.371554,0 4.32468,1.95313 4.32468,4.32469 0,2.37154 -1.953126,4.32467 -4.32468,4.32467 -1.905732,0 -3.539235,-1.26204 -4.108361,-2.9881 H 32.921384 l -14.725319,14.94171 h 27.564854 c 0.579313,-1.70854 2.20287,-2.95447 4.096031,-2.95447 2.371554,0 4.32468,1.95313 4.32468,4.32468 0,2.37155 -1.953126,4.32524 -4.32468,4.32524 -1.844937,0 -3.432323,-1.18449 -4.048395,-2.82614 H 13.289682 v -32.47861 c -1.708551,-0.57917 -2.954476,-2.20231 -2.954476,-4.09547 0,-2.37156 1.953123,-4.32468 4.324677,-4.32468 z m 0,2.86929 c -0.820923,0 -1.455382,0.63457 -1.455382,1.45539 0,0.82081 0.634459,1.45538 1.455382,1.45538 0.820925,0 1.455944,-0.63457 1.455944,-1.45538 0,-0.82082 -0.635019,-1.45539 -1.455944,-1.45539 z m 17.512792,0 c -0.820926,0 -1.455384,0.63457 -1.455384,1.45539 3e-6,0.82081 0.634458,1.45538 1.455384,1.45538 0.820926,0 1.455944,-0.63457 1.455944,-1.45538 0,-0.82082 -0.635018,-1.45539 -1.455944,-1.45539 z m 17.55538,0 c -0.820922,0 -1.45538,0.63457 -1.45538,1.45539 0,0.82081 0.634458,1.45538 1.45538,1.45538 0.820926,0 1.455944,-0.63457 1.455944,-1.45538 0,-0.82082 -0.635018,-1.45539 -1.455944,-1.45539 z m 0.128895,17.42649 c -0.820925,0 -1.455944,0.63457 -1.455944,1.45539 0,0.82081 0.635019,1.45537 1.455944,1.45537 0.820926,0 1.455385,-0.63456 1.455385,-1.45537 0,-0.82082 -0.634459,-1.45539 -1.455385,-1.45539 z m 0,17.6485 c -0.820925,0 -1.455944,0.63456 -1.455944,1.45538 0,0.82082 0.635019,1.45594 1.455944,1.45594 0.820926,0 1.455385,-0.63512 1.455385,-1.45594 0,-0.82082 -0.634459,-1.45538 -1.455385,-1.45538 z"
       id="path3225"
       inkscape:connector-curvature="0"
       sodipodi:nodetypes="sscsscssscccccsscccsssscccsssccccssscccsssssssscssssssssssssssssss" />
    <path
       style="opacity:1;fill:#436795;fill-opacity:1;stroke:none;stroke-width:0.28692955px;stroke-linecap:butt;stroke-linejoin:miter;stroke-opacity:1"
       d="m 63.940912,336.22247 -11.242933,11.16672 c 0.727369,0.77523 1.17854,1.81208 1.17854,2.94775 0,2.37155 -1.953683,4.32468 -4.32524,4.32468 -0.67231,0 -1.308398,-0.16152 -1.87849,-0.44049 L 35.62343,366.2307 h 10.020679 c 0.625047,-1.62406 2.203698,-2.79196 4.036065,-2.79196 2.371554,0 4.32468,1.95313 4.32468,4.32469 0,2.37154 -1.953126,4.32467 -4.32468,4.32467 -1.905732,0 -3.539235,-1.26204 -4.108361,-2.9881 H 32.744608 l -14.725319,14.94172 h 27.564854 c 0.579313,-1.70854 2.20287,-2.95447 4.096031,-2.95447 2.371554,0 4.32468,1.95313 4.32468,4.32468 0,2.37155 -1.953126,4.32524 -4.32468,4.32524 -1.844937,0 -3.432323,-1.18449 -4.048395,-2.82614 H 13.172312 L 0.03071156,399.96296 H 48.869263 c 8.349784,0 15.071649,-6.72187 15.071649,-15.07165 z m -13.270492,13.18026 -2.060628,2.04662 c 0.252013,0.21192 0.576074,0.34297 0.941487,0.34297 0.820926,0 1.455944,-0.63457 1.455944,-1.45538 0,-0.36177 -0.12855,-0.68318 -0.336803,-0.93421 z m -0.990246,16.90531 c -0.820925,0 -1.455944,0.63457 -1.455944,1.45539 0,0.82081 0.635019,1.45537 1.455944,1.45537 0.820926,0 1.455385,-0.63456 1.455385,-1.45537 0,-0.82082 -0.634459,-1.45539 -1.455385,-1.45539 z m 0,17.64851 c -0.820925,0 -1.455944,0.63456 -1.455944,1.45538 0,0.82082 0.635019,1.45594 1.455944,1.45594 0.820926,0 1.455385,-0.63512 1.455385,-1.45594 0,-0.82082 -0.634459,-1.45538 -1.455385,-1.45538 z"
       id="path3227"
       inkscape:connector-curvature="0"
       sodipodi:nodetypes="ccsscccsssccccssscccsscccsscssssssssss" />
  </g>
</svg>
