<?xml version="1.0" encoding="UTF-8"?>
<svg width="64" height="64" version="1.1" viewBox="0 0 64 64" xmlns="http://www.w3.org/2000/svg">
 <g id="surface1">
  <path d="m9.5 0h45v64h-45z" style="fill:#e95420"/>
  <path d="m24 40.449c0 2.5977-2.1055 4.6992-4.6992 4.6992-2.5977 0-4.6992-2.1016-4.6992-4.6992 0-2.5938 2.1016-4.6992 4.6992-4.6992 2.5938 0 4.6992 2.1055 4.6992 4.6992z" style="fill:#fff"/>
  <path d="m43.699 30.102c0 2.5938-2.1016 4.6992-4.6992 4.6992s-4.6992-2.1055-4.6992-4.6992c0-2.5977 2.1016-4.7031 4.6992-4.7031s4.6992 2.1055 4.6992 4.7031z" style="fill:#fff"/>
  <path d="m29.949 52.602c-3.3984-0.70312-6.25-2.9023-7.8477-6-1.25 0.59766-2.7031 0.75-4.0508 0.5 1.8984 4.75 6.0508 8.1992 11.051 9.2969 1.0977 0.25 2.25 0.35156 3.3477 0.35156-0.84766-1.1484-1.3477-2.5-1.3984-3.9492-0.30078-0.050781-0.69922-0.15234-1.1016-0.19922z" style="fill:#fff"/>
  <path d="m42.602 52.602c0 2.5938-2.1055 4.6992-4.7031 4.6992-2.5938 0-4.6992-2.1055-4.6992-4.6992 0-2.5977 2.1055-4.7031 4.6992-4.7031 2.5977 0 4.7031 2.1055 4.7031 4.7031z" style="fill:#fff"/>
  <path d="m44.5 50.898c4.1484-5.25 4.4492-12.547 0.80078-18.148-0.55078 1.3008-1.4492 2.3516-2.6523 3.1016 1.9023 3.5977 1.75 8-0.39844 11.5 1.1016 0.89844 1.8984 2.1484 2.25 3.5469z" style="fill:#fff"/>
  <path d="m18.949 33.648h0.35156c0.5 0 0.94922 0.050781 1.4492 0.15234 0.75 0.14844 1.5 0.44922 2.1484 0.84766 2.1016-3.0469 5.5508-4.8984 9.25-4.9492 0-0.34766 0.050781-0.69922 0.15234-1.0508 0.19922-1 0.64844-1.9492 1.3008-2.75-5.9531-0.44922-11.652 2.5508-14.652 7.75z" style="fill:#fff"/>
 </g>
</svg>
