<svg xmlns="http://www.w3.org/2000/svg" width="64" height="64"><path d="M62.102 31.99c0 16.596-13.455 30.05-30.052 30.05-16.598 0-30.052-13.454-30.052-30.05 0-16.599 13.454-30.053 30.051-30.053 16.598 0 30.053 13.454 30.053 30.052z" fill="#dd4814"/><path d="M11.615 27.977a4.012 4.012 0 1 0-.001 8.024 4.012 4.012 0 0 0 .001-8.024zm28.647 18.235a4.01 4.01 0 1 0 4.011 6.948 4.01 4.01 0 1 0-4.01-6.948zM20.33 31.99c0-3.965 1.97-7.468 4.984-9.589l-2.934-4.913a17.46 17.46 0 0 0-7.208 10.133 5.623 5.623 0 0 1 2.077 4.37c0 1.762-.81 3.335-2.077 4.368a17.457 17.457 0 0 0 7.208 10.133l2.934-4.914a11.701 11.701 0 0 1-4.984-9.588zm11.72-11.72c6.123 0 11.145 4.694 11.672 10.68l5.718-.083a17.375 17.375 0 0 0-5.179-11.306 5.621 5.621 0 0 1-4.81-.39 5.62 5.62 0 0 1-2.744-3.977 17.43 17.43 0 0 0-12.381 1.17l2.787 4.996c1.5-.698 3.173-1.09 4.937-1.09zm0 23.44c-1.764 0-3.436-.392-4.937-1.09l-2.788 4.995a17.433 17.433 0 0 0 12.381 1.17 5.623 5.623 0 0 1 2.745-3.977 5.622 5.622 0 0 1 4.81-.39 17.375 17.375 0 0 0 5.179-11.305l-5.718-.084c-.526 5.987-5.549 10.681-11.672 10.681zm8.211-25.944a4.01 4.01 0 1 0 4.012-6.947 4.011 4.011 0 0 0-4.012 6.947z" fill="#fff"/></svg>